<svg width="1208" height="900" viewBox="0 0 1208 900" fill="none" xmlns="http://www.w3.org/2000/svg">
  <path d="M641.24 815.145h2.52a8.24 8.24 0 0 1 2.5 4.57l-4.85 4.61c-7.25 2.46-16.07 1.76-24.84 1.8h-16.48c-1.3 0-2.61-.12-3.61 1.09a7.57 7.57 0 0 0-6.91-.74 6.8 6.8 0 0 1-5.47 0 6.6 6.6 0 0 0-5.63.08 3.6 3.6 0 0 1-3.23.44c-2.32-1.42-4.76-.86-7.14-.87-12.32-.07-24.64.11-37-.11-4.11-.08-8.06 2.1-12 1a35.3 35.3 0 0 0-10.1-.86c-1.4 0-2.92-.58-4.17.86a2.52 2.52 0 0 1-2.38 0c-2.32-1.47-4.62-.69-7-.49-1.21.1-2.67 1.15-4-.38-.47-.54-1.9-.11-2.51.9-.66-.86-1.75-1.43-2.53-.91-2.12 1.41-4.4.9-6.62.91-7.66.06-15.32 0-23 0-4.16 0-8.44-.61-12.45.17a69.6 69.6 0 0 1-12.11.81c-4.16.07-8.36-.29-12.48.12a25.8 25.8 0 0 0-8.38 1.87c-2-1.69-4.49-.85-6.87-1s-5.14-.53-7.46.11c-2.337.52-4.717.821-7.11.9-2.37.21-4.94-.92-7.17 1-1.38-.11-2.66-2.09-4.27-.49-.5.49-.68.06-1.09-.06-2.18-.65-4.35-1.14-6.43.47a2.26 2.26 0 0 1-1.94 0c-3.27-1.51-6.71-.87-10.09-.94s-7 0-10.49 0c-1.59.59-2.79 2.1-4.6 2-1.48 0-1.84-1.35-2.92-2-1.54.32-3.17-.22-5 .8a5.56 5.56 0 0 1-5.6-.5c-3.2.63-6.26-3-9.55-.32-.2.16-.66 0-1 0-1.89.39-3.66-.74-5.7-.12a10 10 0 0 1-5.92 0c-3.7-1.32-7.41-.76-11.12-.86s-7.66 0-11.49 0c-1 0-2.11-.35-2.45 1.7-1.64-2-3.63-1.24-5.17-1.83-1.91-.72-3.49.41-5.21.13s-3.69.85-4.75-1.1c-4.4 2-8.72.68-12.91 1.09-1.17.12-2.3.11-3-1-1-.35-1.46 1-2.11.91-4.13-.59-8 1.45-12.1 1.17-1.18-.08-2.21-1.48-3.75-.26-1 .76-2.94-.44-4 1.13 0 .08-.32 0-.49 0-7.89-.66-15.66 1.58-23.56 1-1-.07-1.38-.73-2.29-1.16a5.58 5.58 0 0 1-4.37 1.1c-2.4-.59-4.67.71-7.2.14-2.7-.59-5.63-.13-8.46-.13h-16c-1.26 0-2.67-.42-3.57 1-1.59-1.92-3.75-.51-6.23-1.28-.11-.3-.49-1.28-.66-1.73h-4.43v-5.63c1.67-1.76 4-2.24 6.39-2.3 4.16-.11 8.34-.2 12.49 0 3.12.16 5.92-1.76 9.09-1.1.95.2 2 0 2.33 1.26 2.63-1.35 5-2 7.41-.19a7.9 7.9 0 0 1 3.58-1.09c5 .17 10-.18 15 .12 5.76.35 11.33-1.67 17.07-1.06 3.74-1.73 7.72-.73 11.58-1 3.37-.23 6.74.42 10.13-.86a5.21 5.21 0 0 1 5.73 1.08c2.12-2.5 5.29-.75 8.06-2 2.45-1.11 5.46 1.74 8.8.5a11.13 11.13 0 0 0-.77-5.69c-.81-2-1.73-4.19-1.07-6.26-2.31-3.28-2.55-7.29-5.09-10.4.93-3.28-2.24-6.33-.72-9.63-2.3-2-2.4-4.42-2.2-6.82-.84-2.08-3.49-3.79-1.13-6.3-1.13-1.66-.87-4.11-3.06-5.05 1.62-2.11-.51-4 .26-5.84l-2.22-2.33c.87-4.66-.76-9-2.42-13.32-.62-1.62-.87-3.07.2-4.17-1.38-4.87-4.42-9-4.72-14.13a14.4 14.4 0 0 0-1.6-4.8c-2-4.4-2.89-9.13-4.25-13.71a20 20 0 0 0-2.68-6.43 13.1 13.1 0 0 1-2.23-6.48c-.09-1.44-1.29-2.25-1.18-3.6l1.23-1.38-3.19-2.51c-.06-1.37.27-2.45-.87-3.06 2.48-2.75-1.51-5.38 0-8-.91-1-2.73-.81-2.8-1.93-.14-2.62-2.48-4.41-2.35-7 .08-1.71-.9-3-2-4.27a28 28 0 0 1 .05-4.39c.25-1.59-1.52-2.53-1.24-3.47l3.85-3.84c.59-2.5-.27-4.17 1.25-5.15 1.14-1.18 2.83.11 3.74-.8 1.36-1.37 2.06.77 3.32.31 1.76-.64 3.95.83 5.59-1 .22-.25 1 .07 1.46 0 1.57-.42 2.6 1.64 4.06 1 1.18-.54 2.24-1.2 3.61-1s2.49-.33 3.7.79c1 .9 2.94-.75 3.24-.41 1.51 1.72 2.29-.44 3.65-.36l1.33 1c3.55-1.82 7.37-.82 11.07-1s7.67.16 11.49-.11c2.08-.14 4 .81 6.2.21s5-.13 7.46-.13h28.48c1.6 0 3.27.31 4.5-1 1.17.18 1.89 1.11 3.17 1.07 5.16-.14 10.32 0 15.48-.07.95 0 1.87.21 2.75-.67.64-.65 1.68-.28 2.67.08 2.94 1.09 5.95 1.07 9.73-.64.09 0 .32 1.27 1.28 1.26.72.12 1-.63 1.51-1 .45 0 .9-.12 1.35.31a3.214 3.214 0 0 0 4 .23 3.996 3.996 0 0 1 4.86.45c1.19.17 1.89-.9 3-1.13 2.53-.51 4.67 2 7 .77s4.52-.24 6.73-.66c1-.18 1.48.51 2.17 1.11 2.31-1.09 4.7-2 7.11-.08 1.22-.17 2.19-1.78 3.54-1 3.58 2.1 7.42.44 11.1.92.53.07.75-1.09 1.58-1 5.56 1.78 5.85 7.68 9 11.8-.77 2.44 1.41 4.88 1 7.62 3 2.68 3.72 6.54 4.87 10 1.6 4.83 2.55 9.89 4.71 14.54.38.83.11 1.63.43 2.31.85 1.82.75 3.91 2.26 5.6s5.05 10.9 4.67 13c-.31 1.74 1.76 2.82 1.05 4.58 1.67 1.54 1.59 3.65 2.15 5.62.48 1.71 2.37 3 1.83 5.22 2 1.44.19 3.85 1.35 5.42 1.37 1.84.21 3.85.79 5.83l1.89 1.89c-.62 2.24.56 4.44 1 6.75.18.83 1.22 1.49 1.78 2.14.4 6.4 3.63 11.94 4.65 18.51l-.67.76c1.48 1.53.64 4.32 2.92 5.43.85 5.65 1.68 11.13 2.55 16.91 4-.51 8.05.8 12-1 .82-.38 2 0 3 0h31c2.5 0 5-.17 7.49 0s4.09-2.57 6.67-2c1-1.89 3.15-.3 4.42-1.38 1.46-1.24 3.16-.44 4.75-.59 1.42-.15 3 .31 4.07-1 1.45.19 2.74 2.17 4.34.44a1.42 1.42 0 0 1 1.33-.42c5.09.61 10-1.62 15.07-1 3.6.44 6.92-1.48 10.59-1.08 3.45.39 7.16.77 10.44-.07 5.07-1.3 10.09-.62 15.11-.8s10.33 0 15.49-.06c1.78 0 3.11 1.55 5.1 1.1a5.28 5.28 0 0 1 4.62.84c.63.48 1.95.16 2.94.06 6.16-.59 11 2.24 15.81 5.9h9.44c0-1.56-.5-3.3.12-4.39.87-1.51 1.32-2.55 0-3.86.75-.93.7-2.35 1.81-3.1l-1-1.06a75.7 75.7 0 0 0 3.12-15.16c.48-.35 1.28-.94 2.08-1.55a3.31 3.31 0 0 1-.76-4.58c1.64-2.43 1.37-5.3 3-8.34-8.06 1.07-15.27-1.23-22.63-.81-.82.05-1.63 0-2.32 0l-2-2h-1.35c-2.06-.11-4.08.22-6.13-.91-1.59-.87-3.9.79-5.58-1-.31-.33-1.3-.14-2 0-4.44.72-8.66-1.46-13.07-1-1.35.14-2.22-.93-3.56-1.15-6-1-12-2.08-18.18-1.89-1.38 0-2.94.61-4.17-.86a1.854 1.854 0 0 0-2.26.23 2.94 2.94 0 0 1-1.716.885 2.94 2.94 0 0 1-1.894-.375c-1.13-.94-1.62.15-2.28.08-5.27-.57-10.33 1.7-15.84 1-1.08 3.17-4.33 2.28-6.56 2.88a27.7 27.7 0 0 0-7.22 3.14 14.6 14.6 0 0 1-4.62 2.16c-2.49.53-4.28 2.5-6.37 3.85-2.5 1.6-5.11 3-7.57 4.62-3.43 2.23-7 4.3-10.19 6.89-2.94 2.35-5.65 4.91-8.38 7.53h-3c-1.15-.55.17-2.51-2.11-2.43 2.37-2.81 3.43-6 7.17-6.66.71-.63.52-2.11 1.66-2.6 5.27-2.25 8.57-7.48 14.93-10 3.75-4.34 10.17-6.44 16.42-9.75-3.55-3.13-2.41-7.3-3.28-10.9-.9-3.76-.2-7.91-.2-12.29l2-1.55c-.53-.58-.85-.94-1.28-1.4.42-1.62 2-3.12.22-5.17-.73-.87-.12-2.89-.12-4.27.91-1.73 1.68-3.44 2.67-5a3 3 0 0 0 .28-2.36c-.92-4.36-.9-4.34 0-9.18.224-1.304.186-2.64-.11-3.93-1.16-4.93-1.22-4.92 1.17-9-.2-3 .33-6.11-.34-9.2-.06-.27-.44-.48-.68-.71 1.82-1.68 2-3.84 2.06-6.16.1-2.55-.6-5.11.68-7.7 1.11-2.25-.57-5.14 1.2-7.5.4-.54 0-1.62.06-2.45 0-1.75-.41-3.6 1.25-4.83l-1.16-1.25c1.82-2.56.42-5.48 1-8.17.29-.47.81-.4 1.26-.4.81-.35.64-1 .64-1.68 0-4 1.51-7.94 1.12-12.08a4.9 4.9 0 0 1 1.84-3.68c-1.49-1.08-.84-2.65-.94-4l1.81-1.81c.52-5.24 1-10.54 6.16-14v-4.91c0-1.64-.24-3.15.91-4.64.46-.61 0-1.86.95-2.62.2-.16-.78-.66-.31-1.76 1.35-3.11 2.89-6.12 4.44-9.87.26-2.65-.61-6.12 1-9.36.26-.54.32-1.62 0-1.93-1.95-1.83-.41-4.14-1.21-6-1.45-5-5.5-8.57-6.83-13.67-.37-1.42-2-2.46-2.88-3.79-1.9-2.87-3.52-6-5.94-8.43-1.48-1.52-1.56-3.66-2.9-5.37s-2.93-3-4.09-4.74c-.3-.46 0-1.29 0-2.4l-3.14-2.53c.66-1.9-.6-3-1.18-4.23-1.4-2.84-1.65-6-2.66-8.89a2.07 2.07 0 0 1 .33-2.32l-.3-4.53c.07-1.25-.46-2.52.51-3.73s.54-2.43-.6-3.4c1.89-4.07.56-8.39 1.17-13.14l1.67-.67c.25-6.23 2.87-10.52 5.75-14.58 2.11-3 3.6-6.48 6.65-8.74 1-.72 1.08-1.92 1.65-2.85a33 33 0 0 1 4-5.83c1.67-1.74 3.69-3.15 4.67-5.55a3.62 3.62 0 0 1 2.12-2c1.83-.42 2.43-2.13 3.79-3 2.28 1.16 1.33 3.35 1.53 5.16-1.85 2.72-4.29 5.07-5 8.44-.49 2.32-3.11 3.11-3.82 5.43-.26.86-1.2 1.83-1.6 2.82a17.95 17.95 0 0 1-5.45 7.31v2.86c-4.2 4.35-4.62 9.89-5.29 15.47a6 6 0 0 0-1.414 2.107 6 6 0 0 0-.416 2.503c.34 4.86-.74 9.81.83 15-1.33 1.61-.71 3.95-.82 6.18 2 1.87 2.7 4.54 4.09 6.77 1.22 2 .48 5.15 3.73 6.17.57.83-.13 2 .38 3.34 1.2 1.39 3.23 2.12 4.78 3.59s1.79 3.55 3.47 4.58 1.35 4.24 4.31 4.2a8.82 8.82 0 0 0 2.67 5.84c1.45 1.32 1.82 3.25 2.7 4.85 1 1.78.38 3.72 1.46 5.42a7.88 7.88 0 0 1 1.49 4.92c-.06.7 1.09 1.51 1.89 2.52 0 4.5.29 9.33-.09 14.11-.32 4-.8 8.12-2.88 11.77-.21.37 0 .94-.43 1.32s-.95.93-1.53 1.51c2.34 1.92.49 3.89-.49 5.27-1.12 1.57-1.84 3.17-3.19 5.56 3.56-.84 6.46.82 9.22-1.21a2.6 2.6 0 0 1 2.31.28 8.1 8.1 0 0 0 7 .1 7.4 7.4 0 0 1 2.81-.43h26a5.87 5.87 0 0 1 3.29 1.17c1.47-1.51 3.46-1.1 5.37-1.14a10 10 0 0 1 3.55 5c-.56 1.8.7 3.84 1.07 6s1.35 4.26 1.06 6.55c2.29 1.64-.31 3.81.54 5.43 1.09 2.09-.82 4.68 1.35 6.45l-.94 1c0 .37-.14.83 0 1 2.15 2.36 2.1 5.5 2.87 8.3.46 1.64-.13 3.46 1 5.11.71 1-.68 2-1 3.34 1.64.94.41 3.1 1.24 4.17 1.35 1.74.61 2.77-.06 4.32a5.33 5.33 0 0 0 0 3.91c1.51 3.32.89 6.75.86 10.11a20.1 20.1 0 0 0 2.08 8.21c-.66 1.06-1.6 2.25-1 3.52 1.59 3.25.65 6.71 1 10.06 2.42-1.74 2.46-2 .91-6.06l1-1.07c-1-1.92-1-1.92-.93-5l2-2c-.68-4.7 1.76-9.37 1-14.3 2-3.37.53-7.06 1.09-10.7l1.9-2c0-2.88.07-5.71 0-8.54a9.35 9.35 0 0 1 1-5.08c-1.56-1.72.45-3.37.12-5.19-.29-1.61-.88-3.64.84-5.07-.09-3.78.41-7.58-.3-11.34-.07-.41-.82-.59-.54-1.65 3.56-3.73 1.5-8.32.69-12.78 1.34-1.2 2.58-2.29 4.15-3.68h2.37c1.56.25 1 2.57 2.57 2.93a22 22 0 0 0 .05 4c.27 1.46-1 2.26-1.15 3.58-.16 1.48 1.43 2.93 1 3.48-1.16 1.38.19 2.22.11 3.27-.27 3.7.84 7.51-1 11.06 1.7 2.23 1.19 4.45 0 6.68-.06.87 1.58 1.51.94 2-1.7 1.29.88 2.65-.44 4.08s.08 3.61-.58 5.21c-.89 2.18-.43 4.71-1.91 6.69a6.72 6.72 0 0 1 .76 6.48 28.9 28.9 0 0 0-1.77 11.24c0 .67.26 1.49 0 2-1.3 2.1-.23 4.7-1.12 6.52-1.14 2.31-.53 4.46-.79 6.66-.08.6-.45.83-.73 1.21-.62.8.74.79.76.72l-3 5.89c.28 1.31-.84 3.26.94 4.66-.32.36-1 .78-.93 1.08.57 3.79-1.67 7.3-1.07 11.08a3.07 3.07 0 0 1-.12 1.93 14.3 14.3 0 0 0-1.87 8.72c.006.476-.068.949-.22 1.4-.88 3-2 6.06-1.72 9.25.32 3.62-1.64 7-1.08 10.55-1.87.93.44 1.78 0 2.66-.15.81-1.34 1.09-1.15 1.66 1.31 2.1 1.9 4.24 3.82 5 3.33.32 6.54-.49 9.54 1.65 1.71 1.22 4 .61 5.87-.57 4 2.46 7.57.19 11.33-1a6.85 6.85 0 0 0 6.15 2.88c6.92-.35 13.67 1.61 20.56 1.18 2.32-.15 4.67.09 7-.06 1.861-.083 3.712.32 5.37 1.17 1.59-3.67 2-7.24 2.64-10.8s2.27-7.2 1.75-10.91l2.1-1.9c1.44-4 .88-8.07.95-12.11 0-.17-.07-.41 0-.49 2-1.9.36-3.79-.27-6a5.924 5.924 0 0 0 1.3-7.46c-.33-.67.09-1.67-.07-2.47-.67-3.31 1.09-6.33 1-9.57-.06-3.49 0-7 0-10.48v-6l2.07-4c-2-4.7.07-9.48.91-14.38-.37-.51-1.12-.78-1-1.6l2.22-4.26a9.9 9.9 0 0 1-1-7.44l1.7-1.61c.53-1.51-.48-2.51-1-3.65 1.74-2 .64-4.39 1.15-6.54 1.71-2.08 3-4.23.66-6.59a7.88 7.88 0 0 0 2.06-5.38c.16-4.34 1.61-8.41 2.34-12.6.41-2.37 1.18-5.25 3.51-7 .2-.15.2-.57.33-1l-1.1-1.55a17.43 17.43 0 0 0 2-9.86l2.14-.75c-.73-2.05.86-3 1.92-4.16-.36-5.12 1.38-9.61 4-14.26.21-1-.65-2.71.33-3.92 1.25-1.54.26-3.2.88-5.28l1.83-1.39v-3.09c3.66-2.82 1.95-7.91 4.66-10.76-.52-1.45-1-2.84-2.35-3.67h-2.17c-4.62-2.56-7.61-6.06-11-9.15-1.33-1.22-3-2.3-5.22-1.58 0 2.1-.42 4.2.11 6s-.21 3.17 0 4.69c.22 2-1 3.67-1.29 5.54-.16.93-1 2-.75 3.11.5 2.53-.61 4.78-1.33 7a8.1 8.1 0 0 0-.67 3.19 7.77 7.77 0 0 1-1.68 5.3 2.4 2.4 0 0 0-.35 1.36c.33.37.67.73 1.34 1.46-2.82 2.24-1.48 6.5-4.34 9-.54 3.58-1.36 7.12-2.18 10.61a75 75 0 0 0-2 10.32c-2.33.81-1.57 3.32-2.52 5l.51.55c-.9 2.4-2.58 4.25-3.52 6.63-.76 1.92-.79 4.07-1.72 5.76-1.67 3-1.69 6.62-3.59 9.51.53 2.06-1.82 2.7-2.24 4.61a15.5 15.5 0 0 1-3 6.63c-3.37 3.75-6.64 7.74-11.09 10.34-3.85.49-7.12-.11-8.65-5.46-.36-4 .42-9.21-.82-14.43-.82-3.46-.06-7.28-.18-10.94-.1-2.71.56-5.45-.89-8.12-.68-1.23.13-2.78.67-3.55-1-5.33-1.75-10.16 1-14.89-.85-.66-1.29-2.16-.68-2.82 1.26-1.34.87-2.75.9-4.16.06-3.32 0-6.65 0-10 .5-2.41 2.86-3.42 4-5 .4-3.62-1-6.48-2.38-9.29-.58-1.19-.78-2.88-2.57-3.14-.14-.61.28-1.29-.35-1.86a7.2 7.2 0 0 1-1.81-3.25 22 22 0 0 0-3.92-6.33c-.64-.79-.68-1.77-1.34-2.48-3.78-.3-7.19.27-10.28 2.86-1.6 1.34-3.86 1.89-6.15 3-3.05.45-6.6.63-9.95 1.56a20.9 20.9 0 0 1-10.19.33c-3.31-.76-6.78-.79-10.05-2.16-2.95-1.23-5.95-3-9.51-2.59-1.39-2.57-4.55-2.6-6.58-4.52-1.83-1.73-5.14-1.78-5.81-5-2.57-.93-4-3.22-5.93-4.95s-3.88-3.29-5.18-5.74a17.5 17.5 0 0 0-4.81-6.21c-.19-1 .24-1.92-.54-2.58-1.83-1.55-1.93-3.85-2.55-5.94-1.14-3.84-1.81-7.85-4-12 0-1.33-.14-3.32 0-5.28.52-6.25-1.75-12.33-1-18.57.18-1.55-.63-3.27.91-4.65a2.14 2.14 0 0 0 0-1.91 7 7 0 0 1 0-6.2c.77-1.85-.14-3.89-.37-5.67s.86-3 .49-4.66a27 27 0 0 1-.08-5.55l2.08-1.92c-1.25-8.09 2.18-15.82 3.27-24.39l1.71-1.41c-1-3.2 1.75-6 .9-9 1.26-1.67 2.22-3.1 2-5s2-3.2 2-5.16c0-1.6-.19-3.2.7-4.78 2.86-3.28 1.4-8.89 6.6-12-3.4-.72-5.36-2.12-7.76-1.72-1-.39-.23-1.63-1.62-2.11a38 38 0 0 1-10-4.88 23.3 23.3 0 0 1-7.09-8.78c-1.65-3.22-2.53-6.62-3.79-10.89 0-.28 1.26-1.08 1-2.61-.32-2.12-.75-4.64.1-6.39.91-1.91.66-3.94 1.61-5.86s.32-4.62 1.07-7c.69-2.21 2.88-3.54 3-5.71.19-2.43 1.74-4 2.6-6 .75-1.71 3.32-2.55 2.5-5a.5.5 0 0 1 .16-.42c2.6-2 3.86-5 5.73-7.59a33.2 33.2 0 0 1 6.69-6.7c2.65-2 5.55-3.64 8.06-5.92a5.46 5.46 0 0 1 5.63-1 77 77 0 0 1 14.72-10.11 13.7 13.7 0 0 1 5.16-1.9 5.6 5.6 0 0 0 3-1.23c3.34-2.9 7.63-2.8 11.47-3.72 3.32-.79 6.77-1.21 10.14-2.09 1.87-.48 4 0 6-.11 1.56-.1 3.21.58 4.69-.81.52-.49 1.7-.22 2.68.38a3.233 3.233 0 0 0 4.38-.54c1.35-.25 2 1.28 3.59 1.09a42.6 42.6 0 0 1 8-.06c3.46.23 6.87 1.44 10.24 1.63 4.2.25 8 2.14 12.84 2.65l1.95 2.33c4.89 1.57 9.45 2.79 12.67 5.91 3.64 3.53 8.73 5.4 11.93 10.31.73-.19 2.11.7 3.44-.58a2.56 2.56 0 0 1 2.8-.23c2.47 1.56 5.1.83 7.64.87a15.6 15.6 0 0 1 7.73 1.9c1.494.8 3.088 1.399 4.74 1.78 3.14.81 6 1.79 7.28 5.25.24.68 1.06 1 2 1.18 1.78.35 4.08 2.44 5.57 4.42.19.27.43.62.7.69 3.39.84 4.42 4.19 6.1 6.46 1.77 2.42 4.38 4.17 5.6 7.11.58 1.42 2.25 2.4 3.5 3.65v2.89c1.8 2.23 4.51 3.79 5.07 6.89l-1.19 1.86a19.1 19.1 0 0 1 3.08 4.51l-1 1.11c1.69 3.18 1.42 7 3.07 10.23-1.79 2.92-1.18 5.67.79 8.3-1.61 3.73-.34 7.61-.82 11.3 1.29.74 2.47.27 3.58.46l1.94 1.94h5l2.07 2.06c5.15-.72 9.61 2 14.37 3.48 2.65.81 5.18 1.94 7.92 2.63a26.6 26.6 0 0 1 8.78 4c5.3 3.78 10.44 7.78 15.7 11.6 1.52 1.11 1.53 3.28 3.17 4.18s2.35 2.31 3.53 3.42c3.84 3.61 6.49 8.25 10.51 11.68a6.84 6.84 0 0 1 2.42 6.38 40 40 0 0 1 3.22 3.28c.75 1 1.79 2.22 1.67 3.23-.39 3.52 1.9 5.91 3.06 9.12-.18 1-2 2.11-.67 3.59.577.709.937 1.57 1.035 2.478a4.73 4.73 0 0 1-.485 2.642c-1.48 2.68-.51 4.93.24 7.23.59 1.83 1.73 3.29.17 5.32-.65.85-.26 2.55-.22 3.86a2.2 2.2 0 0 1-1 2.13l.94 1.07-.91 1 1 1.08c-1 2.91-4.17 5.29-2.3 9.16-2.73 2.83-1.43 6.75-1.75 10.44a53 53 0 0 0-4 9.24 23.1 23.1 0 0 1-3.18 6.16c-2.28 3-3.85 6.62-6.71 9.25-.23.2-.23 1-.66 1.18-3.26 1.2-3.95 5-6.66 6.63s-5 4.14-7.33 6.4a7.4 7.4 0 0 1-1.6.94c-3 1.74-6.15 3.31-8.25 5.93h-3l-2.43 2.91c-3.35 0-5.61 1.7-8 2.71-3.77 1.62-7.76 2.21-11.63 3.24-2.54.68-5.22 1-7.72 1.91-.46.13-.933.204-1.41.22-2 .26-3.73-2.08-5.52-.91s-3.75.88-5.64.86c-1.55 0-3.26.67-4.66-.86a2 2 0 0 0-1.181-.247c-.41.041-.798.207-1.109.477-1.13 1-2.1.61-3.45 0-2.08-.87-4.43-.4-6.71.09 2 .47 4.66.37 5.52 1.88s2.51 1.71 3.34 3a5.48 5.48 0 0 0 3.09 2.13c5.73 1.84 9.32 6.93 14.54 9.54.26 1.55 1.42 2.5 2.48 3.45 1.71 1.51 3.26 3.17 5 4.65a53 53 0 0 1 4.44 4.85 11.4 11.4 0 0 0 5.19 3.17c1 2.06 1.33 4.62 4.18 5.16.65 3.23.65 3.23 3.81 3.79.77 1 .17 2.21.38 3.37 2.22 2.23 4.2 4.86 7.54 5.62a26.3 26.3 0 0 1 2.1 4.13 6.78 6.78 0 0 0 2.56 3.41 10.3 10.3 0 0 1 2.85 3.43c1.37 2.66 5.12 3.67 4.91 7.29 2.34.92 2.86 3.58 4.79 4.94a9.88 9.88 0 0 1 3.39 5.22c1.37.19 2.37 1.31 3.25 2.42 1.69 2.13 2.69 4.77 5.22 6.3.393.37.708.816.925 1.311.216.495.33 1.029.335 1.569a2.74 2.74 0 0 0 1.27 2.48c3.78 2.1 5.36 6.35 8.84 8.71l-.86 1c-.37.7.6.84.92 1.21 1.37 1.55 2.79 2.84 3.35 5.15.39 1.59 2.43 2.84 2.54 4.91.13 2.32 3.2 2.78 3.27 5.14 2.65 2.21 3.81 5.72 6.71 7.59a15.55 15.55 0 0 0 5.13 10.61c.24.19.75.26.79.45.73 4.23 4.32 7.17 5.09 11.38.06.3.16.6.24.9a3.76 3.76 0 0 1 2.41 1.41c.95 1.2-.21 2.81 1 4.12 1 1.11.09 2.85.46 4.39 3 2.18 4 6 6.85 8.84v3.72c.85 1.09 1.94 1.85 1.95 2.62.07 4.08 2.48 7.34 3.58 11 .91 3.08 2.29 6 3.69 9.63.12.39-1.5.47-1 2 1.59 1 1.89 3.51 3.88 5-.48 5.11 1 9.91 3 14.71-.32.47-.68 1-1 1.5-.2 1.2 1 1.82 1.12 3.07.24 2.26 1.54 4.42 1.79 6.68a35.5 35.5 0 0 1 0 9c-.4 2.88-1.54 5.66-2.38 8.48-.13.44-.54.88-.49 1.28.51 4.57-.8 8.86-2 13.16-.09.31.13.81 0 1-2.64 2.63-1.85 6-2 9.26-2.34 1.33-2.91 4.2-5.57 6.33 3.35 0 6.13.11 8.89 0 2.55-.13 5.15.64 7.64-.89a4 4 0 0 1 3.4 0c3.46 2 7.11.36 10.62.92 2.35-1.69 5-.72 7.57-1 1-.12 1.43.62 2.1 1 1.3.08 2.08-1.18 3.57-1.18s2.87 1.29 4.75.31c1.44-.75 3.58-.15 5.42-.15h16.48c1.83 0 3.67-.07 5.5 0 1.4.07 3-.57 4.14.92.26.32 1.3.17 1.93 0 4.81-1.08 4.8-1.06 10.18 0 1.14.291 2.33.291 3.47 0 4.6-1.64 9.21-.72 13.88-.57 2.39.08 5.21.37 7.29-.56 2.33-1 4.46-.57 6.67-.77.46.011.93-.071 1.36-.243s.82-.43 1.15-.757c4.29 1.29 8.26-.38 12.94-.74 2.59 1.37 6 1 9.31.27 2.81-.6 5.26-2.54 8.46-.72 1.25.71 3.26.15 4.93.1.41-.08.83-.038 1.21.122.38.161.71.431.94.778.86-1 2.52-.48 3-2 2.64.33 5.25-.54 7.72 1a2.35 2.35 0 0 0 2.77-.31c.82-1 1.87-.34 2.75-.63 1.27-.43 2.32 1.1 3.35.48 1.29-.78 2.56-.29 3.83-.44 3-.34 5.57.77 8 1.92 4.16-1.67 8.69-.45 12.84-2.36 1.78-7.12 1.82-8.17.25-11.29a8.1 8.1 0 0 0 1.18-3.829 8.06 8.06 0 0 0-.82-3.921c.6-.81.38-2.31 1.71-2.85v-9.58c0-1.09.5-2.33-.63-3.22-.67-.52-.19-1.25-.35-1.86-.46-1.7 1.39-2.76 1.11-4.59-.22-1.47-.92-3.32.67-4.66.58-5.48 1.71-10.92 1.22-16.47-2.31-2.69-.2-5 .73-7.36.73-1.8-.76-4 1.27-5.47-.7-3.14 1.52-6 .91-9.06-.45-2.24 1.75-3.86.82-6.31-1.54 0-3.18-.12-4.8 0-7.74.64-15.34-1.66-23.07-1-1.64.13-2.94-1.81-4.55-1-1.36.73-2.47.07-3.7 0s-2.69-.72-3.72.59c-.4.51-.9.37-1.36.32-1.45-.13-2.95.41-4.35-.33s-2.77.75-4.33.41c-1.49-.22-2.99-.22-4.48 0-1 .09-1.33-.82-2.08-1-1-.28-1.27.93-2.48 1.07-.17 0-.53-.29-.84-.67-3.4.73-6.74 1.11-10.15-.07a6.9 6.9 0 0 0-5.65.15 4.77 4.77 0 0 1-4.22.39c-2.55-1.38-5.12-.77-7.65-.81-2.37 0-4.75-.43-7.14.82a6.2 6.2 0 0 1-4.88 0c-3-1.44-6.1-.69-9.14-.86-3.21-.19-6.49.49-9.39-1.5a6.44 6.44 0 0 0-.75 3.469 6.5 6.5 0 0 0 1.17 3.351c1.31 2 .88 4.24 1.86 6.24a17.8 17.8 0 0 1 1.95 6.15c.16 1.93 1.59 3 2.08 4.68v6l2 2.13v2.93c2.13 1.35 2.93 4 2.86 6.35-.13 4 1.54 7.38 2.59 11 .34.705.52 1.477.52 2.26-.54 3.3 1.41 6.27 1.13 9.59-.1 1.2 1.05 2.52 1.63 3.78-1.94 3.2 0 5.5 2.15 8-.43 4.93 3.68 9.46 1.48 15.84-.79 1.28-3.53 1.86-5.11 3.64-2.13 0-3.48-1.14-5.24-2.27.08-2.76-.49-5.501-1.66-8a20 20 0 0 1-1.28-6.94 16.4 16.4 0 0 0-1.05-5.08c-.67-1.78-1.42-3.62-1-5.56.29-1.32-.8-2-1-3.09-.66-3.06-1.19-6.15-2-9.15-.75-2.66-.61-5.7-2.85-7.46-.44-1.32 1.16-1.4.89-2.41s-1.19-1.47-1.76-2.24c-.51-3.65-2-7.19-1-11l-2.85-2.39c-.82-2.79.66-5.12-1.34-6.87.55-1.93-.35-3.8-.36-5.73 0-1.74-1.57-3.5-2-5.45-.12-.53-.65-1-.63-1.73.09-4.41-1.51-8.17-3.75-11.95a11.6 11.6 0 0 1-1.18-8c.11-.55.86-1 1.37-1.5h5.47c1 1.15 2.31 2.63 3.69 4.2 1.54-.87 3-1.55 4.67-1.29 1.16.085 2.33.085 3.49 0 2.83 0 5.67-.12 8.49 0 2.62.15 4.77-2.2 7.56-1-3.8-4.07-9.15-5.5-12.86-9.15-2.48-2.44-5.74-4.09-7.29-7.6-.76-1.71-2.66-2.94-4.14-4.28-3.84-3.48-6.13-8.12-9.17-12.19-.21-3.36-1.93-6-4.24-8.23.44-3-2-4.84-3-7.25a4.65 4.65 0 0 0-1.25-2c-3.41-2.73-4.47-6.76-5.79-10.6-.66-1.92-1.76-3.86-.34-6.9.05 0 .94-.76 2.22-1.79h.86c2.33 0 4.66.11 7 0 2.7-.16 5.22.2 7 2.38.92 1.13 2.15.27 3.13 1 2.38 1.76 5.82 1.74 7.62 4.59.19.3 1.27 0 2 0 2 3 5.61 4.27 8.2 7-.58-2.45-1.27-4.88-.57-7.37-4.59-3.26-2.95-9.26-6.17-13 .21-5-3.83-9.06-3-13.78-.48-1.19-1.54-.25-1.84-1.24.41-4.92-1.23-9.83-1.11-14.86 0-1.91-.49-3.83.51-5.78.83-1.61 2.43-2.45 3.25-4 .73-.991 1.58-1.879 2.55-2.64h5.28c3.41 1.36 4.39 5.27 7.28 7.31s2.94 6.29 5.66 8.63c-.09 3.64 4.42 5.58 3.36 9.35l2 2v3.14l2.06 1.62v6.27c1.85 3.06 2.56 5.39 2.08 6.9.37 1.07 1.86 1.32 1.92 2.87-.26.35-.64.84-1.15 1.53l3.14 6.11c.14.77-.59 1-1.2 1.84 2.09 1.46.08 4.67 2.9 6.32.31-2.55 1.79-4.73 1.33-7.4-.18-1.07.45-2.14.71-3.16.5-1.94 1.71-3.77 1.31-6-.25-1.43 1-2.53 1.65-3.78.38-.61-.37-.66-.66-1.47 1-1.64.43-4.4 2.95-5.6v-3.16c1.4-1.5 2.54-3.228 3.37-5.11a16.63 16.63 0 0 1 8.49-8.84c2.11-1 4.2-.19 6.16-.62.29.195.6.366.92.51 4.76 1.66 7.11 5.06 8.2 10a22.8 22.8 0 0 0 2.33 5.49c.86 1.58.75 2.72-.6 3.66a9.9 9.9 0 0 1 1.2 4.212 9.8 9.8 0 0 1-.73 4.318c-.3.57-.45 1.203-.45 1.845s.15 1.275.45 1.845c1 1.57.61 2.79 0 4.48-.7 2.09-.38 4.54-.5 6.74-1.35 4-4.59 7.29-4.94 12.92 3.4-6.74 9.59-9.12 13.13-13.55 3.84-1.08 6.53-3.8 10.12-4.41s7.3-1.56 11.55-.67c2.18 2.4 5.88 4.49 5.19 9.2l-1.87 1.86v4.85a45 45 0 0 1-5 5.78c-1.78 1.64-3.44 3-4 4.91-3.12 3.27-5.79 6.44-8.85 9.18-2.9 2.59-4.69 6.42-8.82 8.15-2.06 3-4.44 6.42-8.29 8-3.5 1.39-5.75 4.38-8.93 6.15-1.71 1-3 2.13-4.86 2.55-.47.11-1 0-1.31.51 1 1.2 2.77-.19 3.58.74s2.35-1 3 .73a2.34 2.34 0 0 0 2.26-.31c.33-.35.69-.89 1.22-.63 4.4 2.09 8.78-.93 13.17 0 .62.13 1.25 0 1.79.54a2.134 2.134 0 0 0 2.68.22 8.2 8.2 0 0 1 7.39 0c.76.268 1.58.36 2.38.27 1.83.14 3.67.14 5.5 0 5.26-.61 10.36 1 15.56 1.23 2.11.1 4.35.77 6.59.8 2.31 1.55 5.33 2.1 6.62 4.38.85 2-1.34 3-.84 4.42.12 1.41 1.49 1.78 2 2.73v7l-1.84 1.83c1.74 1.72.71 3.38-.34 4.85l1.2 1.29c-1.83 1.67-2.11 3.83-2 6.16.09 2.16-.11 4.34.07 6.49.1 1.16-.64 1.75-1.17 2.81a4.37 4.37 0 0 1 1.21 2.94 4.43 4.43 0 0 1-1.08 2.99c-.16.62.34.88 1.13 1.79.32.39-1.5.14-1.07.71-.44 1.21.69 1.52 1 2.34-.64 1.17-.79 2.65-2.06 3.74.23 2.1 0 4.21.88 6.49s-1.51 4.85-.87 7.5c-2.52 3.4.06 6.24 1 9.75-2.54 2.29-3.43 5.54-3 9.26.1 1.495.1 2.995 0 4.49-.07 2.21.64 4.53-1.33 6.64 2.92 0 5.5 1.16 7.9-.62.24.303.54.55.89.723.34.173.72.268 1.11.277 1.57.13 2.93-.93 4.72-.19 1.57.65 3.61.18 5.44.13 5-.13 9.94 0 14.19 3.8.38 3.36-.11 6.67-5.41 8.19-1.6 0-4.36.47-6.89-.09-6.68-1.47-13.39-.75-20.09-.81-1.23 0-1.53-1.25-2.82-1.06-1.33 2.12-4.39-.3-5.58 2.18l-1.93-1.21c-3.89 1.92-8 .62-12.07 1-3.33 3.14-7.41-1.88-11.1 1.11a4.54 4.54 0 0 0-2.43-1.324 4.54 4.54 0 0 0-2.74.324c-1.65.64-3.21-.38-4.93.65a5.68 5.68 0 0 1-5.15-.39 6.95 6.95 0 0 0-5.65 0 9.8 9.8 0 0 1-8.11-.37c-1.45.68-3.05 1.66-5.09.45a4.4 4.4 0 0 0-2.53-.692 4.4 4.4 0 0 0-2.47.872c-.79.61-1.58.2-2.36.34-1.53.26-2.7-2.15-4.42-.59-1.27 1.15-2.92.14-4.22.66-.88.33-1.84.33-2.72 0-1.57-.4-3.68-.7-4.87 0s-2.35-.29-3.52.48c-1.88 1.24-4.57-.63-6.41 1.36-5.75-.65-11.32 1.66-17.08 1-.94-.1-1.26-1-2-1-.25 0-.5-.07-.58 0-1.46 1.55-3.36.81-5.07 1-1-.55-1.36-1.91-2.62-2q-.975.098-1.92.37c-1.55.52-2.92 1.45-5 .84-1.24-.36-3 1.76-4.63-.17-.14-.16-.65 0-1 0-6.08.69-12-1-18.07-1-2 0-4.21.69-6.13-.89-.41-.34-1.45 0-2.27.34-2.6 1-5.3 1.17-7.83-.39-1-.3-1.17 1.08-2.09 1-.66-.06-1.33 0-2 0-2.66 0-5.33.1-8 0s-4.9 1.61-7.59 1.06c-3.06-.64-6.17-1.08-9.89-1.71a9.31 9.31 0 0 1-8.53-.34c-1.14.83-2.83 1.69-3.91.92a4.23 4.23 0 0 0-5 0c-2.49.45-2.68-2.12-4.62-1.84-.44 2.84-3.36 3.33-5.23 4.83-.81.64-2.11 1.19-2.54 2-1.62 3.17-4.56 5.08-6.78 7.67a10.2 10.2 0 0 1-4.21 3.11 5.9 5.9 0 0 0-2.73 1.84c-1.94 2.46-4.72 3.72-7.3 5.31-5 3.09-10.8 4.65-15.66 8.06-.49.34-1.06 1.1-1.53 1-3-.58-4.61 1.82-7.61 3.06a12.1 12.1 0 0 0-6.05 1.48c-2.48 1.41-5.58 1.78-8.43 2.49a57 57 0 0 0-7.19 2 15.75 15.75 0 0 1-7.06 1.08 11.9 11.9 0 0 0-5.61.9c-1.55.62-3.47-.5-5.13 1-.65.58-2.25.09-3.41.09-3.67 0-7.33.06-11 0a3.64 3.64 0 0 0-2.6 1.06c-1.29 0-2.08-1.18-3.57-1.18s-2.48 1.31-3.83.57-2.89-.37-4.33-.39c-5 0-10.08.54-15-.18s-9.85-.1-14.55-1c-4.44-.88-9.3.17-13.38-2.58a3.8 3.8 0 0 0-1.91-.21c-2 .101-4.003.081-6-.06-2-.27-3.93-1.4-6.09-.94-1.2-2-4 0-5.17-2-4.23.44-8.15-1-12.17-1.93-1.74-.4-3.65-.07-5.74-.07l-2.41-3c-3.3-.07-5.93.18-8.44-1.63-1.69-1.22-4.17-.13-6.26-.46-.53-.32-.42-.84-.45-1.68a35.3 35.3 0 0 1-8.07-1.69c-1.85-.59-3.24-1.91-5-2.47a36 36 0 0 1-5.23-1.86 8.74 8.74 0 0 0-6.2-1.07l-1.59-2.13h-3.41l-2.92-3a11.34 11.34 0 0 1-5.017-.434 11.34 11.34 0 0 1-4.333-2.566c-1.83.36-2.18 1.85-2.51 2.94-1.39.33-1.76-.57-2.7-1.35a35 35 0 0 0 0-4.07c-.22-2 .87-4.26-.89-6 1.5-.79-.25-1.67 0-2.17.78-1.61.44-3.6 1.3-4.93 1-1.52.3-2.91.62-4.31a19 19 0 0 1 .06-3.92c.31-1.46 1.22-2.79 1.57-4.25.54-2.25 1.85-4.36 1.37-6.81.08-1.64-.41-3.35.8-4.62-1-1.49-2.62-1.52-3.75-2.45-1 0-1.38 1.47-2.5 1.07s-1.54 1.06-2.55 1c.08-1-.64-1.16-1.26-1a6.48 6.48 0 0 1-5.84-.66c-1.08-.72-2.22-.2-3.61-.41l-1.59-2h-7.68c-1.84-1.42-3.86-1-6.1-.91l1.07 1.57c.17 1.09-.79 1.29-.92 1.85-.09.824-.09 1.656 0 2.48.17.93-.13 1.85.28 2.84 1.11 2.68 2.45 5.24 3.73 7.83.7 1.42.48 3.26 2 4.31v5a14 14 0 0 1 2.15 0c3.71.68 7.19-1.1 10.84-1zm-304.59-.28 1 .89c.12.11.23.33.35.33 5.33 0 10.66 0 16 .06 1 0 1.45-.57 2.09-1 .11-.08.32 0 .87 0 .81 1.85 2.65 1 4.2 1q17.48.1 35 0c2 0 4.16.61 6.15-.86.6-.44 2.06-.15 3.24.33 2.57 1 5.28.72 8 0a27.7 27.7 0 0 1 12.65 0c2.111.391 4.283.292 6.35-.29 2-.42 4.19 1.45 6.49.72.28-.09.45-.62.72-.66 2.4-.4 4.79-.61 6.9 1 1-1.43 2.4-1.16 3.68-1.16h22.47c7.33 0 14.66-.28 22 .08s14.69-1.19 22.07-1.1 15 0 22.47 0h4c.9 0 1.51 1.15 2.77.11.8-.65 2.57-.12 3.9-.12a36 36 0 0 1 4 0c2.55.27 5.25-.83 7.66.77 3.89-1.14 7.45.76 11.17 1.08 2.29.2 4.7.7 7.16-.72 1.49-.86 4-.45 5.88-.06 5.72 1.16 8.4 1 15.2 0 2.75-.38 5.83-1 8.64.67.92.55 2.21.34 3.61-.08a7.3 7.3 0 0 1 0-1.81c.54-2-1.38-3.53-1.08-5.59a13.5 13.5 0 0 0-.07-5.94c-.56-1.7-.34-3.87-2.26-5.21a6.87 6.87 0 0 0-5.69 1 4.75 4.75 0 0 0-3.22-1.13 15 15 0 0 1-5-.07c-1.5-.43-2.43 1.32-3.86.49s-3.22-.34-4.83-.37c-4.66-.07-9.33-.12-14 0-1.3 0-2-.95-3.21-1.08-1 1.27-2.53.93-4 1-1.6.11-3.29-.49-4.8.43s-2.63.46-4.09.14a9.6 9.6 0 0 0-4.34.45c-1.65.46-2.64-1.07-4-1.1-.64.39-.87 1.2-1.7 1.06a7 7 0 0 0-6.85-.48c-1 .45-2.1.82-2.68.25-1.33-1.3-2.81-.66-4.21-.73a10.3 10.3 0 0 0-5.13.83c-1.68.76-3.45-1.49-5.54-.91a2.64 2.64 0 0 1-3.05-.92c-2.84 2.11-6.11.31-9.08 1-1.51.36-2.36-.85-3.68-1.07-.33.28-.68.85-1.05.86-4.31.1-8.62.14-12.93.16a4.46 4.46 0 0 1-3.2-.81c-.71-.58-2.35-.5-3.36-.12-4.27 1.6-8.44 1.28-12.69 0a2.26 2.26 0 0 0-2.54.55l2.25 4.71-1 1.15c.28 1 1.27.18 1.73.93-.11 1.36.69 2.57 1.13 3.66-.84 1.68-1.59 3.2-2.37 4.75-1.41 0-2.1 1.27-3 2.11-3.12.26-6.17.31-8.43-2.29-.13-1.83.36-4.05-.53-5.3-1.78-2.53-1.56-5.15-1.6-7.27-1.16-3-3.45-4.7-4-7.42.52-1 1.84-1.4 2.08-3.07-2.41-.69-.22-3.09-1.52-4.5s-1.1-3.28-2.52-4.49l.88-1c-.19-.61-1.1-.77-.92-1.59-.16-1 1.34-1.09.84-2.57-2.54-1.23-1.63-4.89-3.82-6.87l1.4-1.5c-3.27-2.26-2.46-6.12-3.21-9.37-1-4.28-1.15-6.89-3.2-9.37.4-3.1-1.34-5.91-1.24-9-1.56-1 0-3.1-1.1-4-2.33-1.85-2.18-4.66-2.51-7a53 53 0 0 0-4.47-16.16 13.9 13.9 0 0 1-1.6-4.81 14.83 14.83 0 0 0-3.43-9.06c-1.05-1.18 0-3-1.57-3.81.43-.47 1.08-.81.91-1.69-2.38-2.16-2.25-5.31-3-8.16s-3.4-5-3.08-8.19l-1.83-1.82v-5.09c-4-2.62-4.5-6.7-4.09-10.2l-2.46-3.37c-3.67.57-7.3-.62-10.75 1.09-1.43.72-2.69-.65-4-1-.81.32-1.14 1.41-2.22 1-.33-.29-.68-.63-1-1-2.73 2.83-5.38-.61-8.19-.13s-6 0-9 .14-5.89-.83-8.48 1a4.25 4.25 0 0 0-3.18-1.11c-1.15.1-2.33 0-3.49 0s-2.7-.52-3.61.93c-.63-1.45-1.78.23-2.45-.38-1.17-1.06-2.53-.3-3.77-.57s-2.67 1-2.9.72c-1-1.05-2.18-.69-3.27-.69-6.49 0-13 .09-19.47-.1-1.6-.05-2.67 1-4.05 1.15-.93-1.48-2.35-1.07-3.62-1.07h-32c-1.17 0-2.65.46-3.44-.09-2.79-1.94-6-1.18-8.59-.67a28.7 28.7 0 0 1-6.62.7c-2.36-.1-4.83.79-7.14-.86a3.95 3.95 0 0 0-3.39 0c-1.51.78-3.16 1.59-4.46.59s-3.09 1.85-3.92-.67c-1.32 0-2.93-.44-3.91.15a5.08 5.08 0 0 1-5.84.06 2 2 0 0 0-2.66.34c-.8 1.07-2.38-.31-2.95 1v8.92c1.17 1.28 1.34 3.12 2.81 3.84.15 1.9-.09 3.83.52 5.43s1.66 3.3 1.87 5.32a1.68 1.68 0 0 1 1.268.008c.406.168.73.488.902.892 1.1 2.45 2 5 1.55 7.6 2.07 1.35 2.19 3.87 4.08 5v5c2.47 2.34 1.29 6.28 3.95 8.44.26 3.14 2.61 5.71 2.05 9H258l1.25 2.53c-1.48 2.29-.36 4.68-.83 6.85l2.1 2.2v2.92c2.71 2.55 3 5.87 3 9.33l2.93 2.61-1.27 1.45c1 1 1 2.49 1.4 3.81a5.8 5.8 0 0 1-.16 3.7l2.09 2.2c0 1.29-.4 2.81.11 3.89a31 31 0 0 0 1.65 3.15l-.95 1c2.1 3.33 2 7.48 3.94 11.14 1.14 2.14 2.62 5.2.48 7.6 1.1 2.36 1.87 4.58 3.62 6.2-1.25.85-1 2-.73 3.09l1.85 1.85c-.17 3.46-.29 7 2 10.06 1.35 1.84.87 4 1 6 2.18 1.45 2 4 3.2 5.74-1.42.88-1.28 2.05-1.16 3.6 2.06-.82 2.23 1.85 4.35 2.14 1.18 1.34 1.42-1.16 2.67-1.12 4.71.15 9.3-1.57 14.07-1 1.819.23 3.66.23 5.48 0 1.43-.2 2.53 1.11 4.26.21 1.44-.75 3.58-.15 5.41-.15 4.33 0 8.66-.07 13 0a5.5 5.5 0 0 0 3.89-1.19m281.19-427.31c-3.39.21-6.73-.15-10.12.88-2.44.74-5.29.14-8 .14a18.48 18.48 0 0 0-5.38 11.71 8.54 8.54 0 0 1-2.1 4.91c.63 2.43-.67 4.76-1.39 7.15a6.3 6.3 0 0 0-.56 2.25c.43 5.84-2.43 11-3.27 16.63-.08.5-.73.94-.76 1.68-.19 3.7.65 7.46-.93 11.08-.55 1.25 1.09 2.13 1 3.57a100 100 0 0 0 0 11.47c.08 1.26-1.37 1.48-1.09 2.58s1.13 1.84 1 3.09c-.14 2.15.07 4.32-.06 6.48-.22 3.65 1.14 6.76 2.88 9.87l-.84.94c.38.5 1.06.77 1 1.6-.54 5.75 3.87 9.71 5.36 14.74 3.09 1.4 2.92 4.7 4.18 7.29 1.66 1.23 4.2 1.7 4.52 4.41 2.2.77 2.52 3.49 4.76 4.47h3.11c-.35 2.28 1.69 2.78 2.57 3.87 1.46.25 2.52-.14 3.65.64 1.89 1.3 4.11 2.12 6.12 3.26 3.48 2 15.1 3.33 17.67 3.15.304-.052.594-.168.85-.34 3.12-1.76 7.07-1.27 10-3.64 2.4.4 3.81-2.07 6.16-2.06a6.37 6.37 0 0 0 6-4c.62-1.32 1.56-1.62 2.9-2.06 2.6-.87 5.46-1.94 7.34-3.81 3.72-3.71 8.14-6.61 11.7-10.47q.295-.268.65-.45l1.08.87c2.26-.07 3.11-2.14 4.71-3.11 1.79-1.08 3-3.06 4.7-4.4s3.52-2 5.11-3.25 2.8-3.08 4.9-3.82a50.4 50.4 0 0 1 1.18-15.07 11.44 11.44 0 0 0 2-5.1c2.3-.45 3.19-2.57 5-3.87-1.15-2.25-1.32-4.58-2.1-6.81a22.07 22.07 0 0 1 .91-17.12c1.23-2.66 2.3-5.4 4.32-7.87-2.55-1.08-4.91-.07-7.08-.68-1.29-2.51-1.29-2.51-4.21-3.15-2.85-3.39-7-5.82-8.44-10.44-.23-.7-1.1-1.22-1.72-1.77-2.15-1.92-3.33-4.25-2.93-6.94l-2.12-2.12c1.13-4-1.65-7.82-.92-11.38-1.49-3.66-4-6.57-1.85-10.57-.58-.51-1.56-1-1.75-1.63a96 96 0 0 0-3.32-9.61 2 2 0 0 1-.106-.949c.041-.321.16-.626.346-.891 1.12-.95.53-2.15.73-3.22.4-2.18-1.22-3.88-1.22-5.88-2.18-.87-3.83.37-5.53 1.08s-3.51 2.33-5.39 2.58a25.2 25.2 0 0 0-7.23 1.92c-2.37 1.08-5.05 1.48-7.39 2.63a6.65 6.65 0 0 1-2.76.56c-1 .07-2.12-.27-3 .09-3.92 1.68-8 2-12.19 2-1.55 0-3.1-.44-4.73.67a4.6 4.6 0 0 1-4.17 0 5.75 5.75 0 0 0-3.75-.65 99.2 99.2 0 0 1-24.51-2.22c0 4-2.57 7-3.24 10.56.64.63 1.11 1.1 1.58 1.58.24-.21.44-.54.71-.59 4.09-.81 8.22-.09 11.85-.39 2.26 1.06 4.15 2 4.91 3.82.51 1.86-1.18 2.7-1.3 4.15zm94.34 124.39v3.06c-3.26 2.51-4.78 6.21-5.88 10a13.5 13.5 0 0 1-2.55 5.46c-1.33 1.54-2.33 3.36-3.57 5-2.65 3.45-5.37 6.8-10.26 7.07-.6 0-1.16.92-1.6 1.3.69 1.28 1.69 2.33 1.8 3.47a25.5 25.5 0 0 1-2.09 13.55 14.9 14.9 0 0 0-1.67 8.77l1.82 1.19c.07 1.59-1.29 2.18-1 3.52.153 1.328.17 2.668.05 4 0 1.13-1.68 1.88-.95 3.06 1.13 1.81.94 3.33.08 5.23a4.31 4.31 0 0 0 .28 3.78 7.2 7.2 0 0 1 .3 6.59c-1.66 3.37.53 7-1.45 10.18 1.69 2.31.59 4.53-.36 6.58.46.53.8.88 1.1 1.27.08.11 0 .32 0 .53-2.49 2.76.26 5.2.21 8 1.62-.78 1.52-2.43 2.47-3.23 2.27-1.94 3.33-4.45 4.43-7.16a39.8 39.8 0 0 1 4.36-8.67c1.67-2.28 1.43-5.44 3.52-7.56v-5c2.4-1.81 2-4.51 2-6.18 2.09-5.4 5.34-9.47 5-14.81a2.1 2.1 0 0 1 .05-1 26.86 26.86 0 0 0 2.94-12.75c1.46-1.48.67-4.25 3-5v-8.55l2-1.48c0-1.81-.52-3.61.13-4.73a6.6 6.6 0 0 0 .79-4.64c-.23-1.3 1.7-2.45.12-3.69 1.64-1.24.25-3.39 1.08-4.47 1.19-1.56-.08-2.55-.19-3.74-.16-1.72 1.34-2.88 1.11-4.59-.19-1.47.11-3-.08-4.48a7.33 7.33 0 0 1 1.18-4.45c-1.24-1.09-1.22-2.77-2.49-3.65-1.47-1 0-2.88-1.28-4.28-.63 3.81-3 7-2.34 10.63-.89.73-1.48 1.32-2.06 1.91zm43-77.51c-1.07-.55-3.28-.69-4-2.68s-2.58-2.81-3.46-4.12h-4.63c-1.63.59-2.14 1.57-3.35 2-2.7 1-5.38.89-8.1.86-2.26 0-4.48 0-6.33 1.37-.28 2-2.22 2.78-3.16 4.25 0 .49.19 1.12 0 1.47-1 1.53-1.22 3.26-1.65 5a7.77 7.77 0 0 0 .65 5.93c.156.478.156.992 0 1.47a10.07 10.07 0 0 0 2.43 9.42l2.84.2 1.75 2.18c6.6 2.22 12.49 1.62 18.34 1.71 2.32-2.58 6-2.5 8.41-4.58 3.35-3.23 3.13-7.75 4-11.74 1.05-4.18.04-8.5-3.73-12.7zm290.37 262.9c.58 1.71 1.86 2.82 1.53 3.8-1.3 2.41-3.09 3.19-5.8 3.5 3.06 1.25 5.08 0 7.23-.33 2.58-.195 5.17-.221 7.75-.08-2.35-2.34-2.84-5.23-4.5-7.09-1.83-2-1-6.1-4.88-6.2v-4.52c-4.37-2.09-6.26-6.57-9-10.36a44.2 44.2 0 0 1-6.65-12.22c-5.37-1.45-7.65-5.2-9.81-9.35-2.67-.75-3.86-3.59-6.16-5.21h-1.87a4.4 4.4 0 0 1-1.22-1.313 4.4 4.4 0 0 1-.61-1.687c-4.1 1-6.55-3.31-10.35-3.05-.47-.71-.12-1.52-.85-1.87-.63 0-1.34-.15-1.47 1s1.37 1.55 2 2.5v3c2 2.06 4.47 3.84 4 7 2.64 2.71 5.74 4.88 5 8.63 1.22 2.1 3.09 3 4 4.85 1.66 3.36 2.9 7 6 9.5.54 3.59 3.54 4.84 6.14 6.47.54.34 1.41.73 1.45 1.16.21 2 2.28 1.9 3.22 3.08a29.6 29.6 0 0 0 3.85 3.89c2.63 2.25 6.64 2 9 4.82.21.24 1 0 1.46 0 .19.03.37.07.55.12zm33.22-51.64 3.09-2.42c0-4.21-.15-7.88 0-11.52s-2-7.22-1.08-10.39c-1.19-3.07-3.14-5.14-3.24-9.19-2.08 4.59-4.54 7.47-6.75 10.73a9.43 9.43 0 0 1-1.78 7.49c-1.25 1.54-.93 3-1.4 5.12l-1.84 1.21c.23 2.84.13 5.22-2 7.1.75 3.22-1.73 6.17-1 9.47-1.11 1.07-.61 2.77-1.46 3.86-.25.316-.43.686-.52 1.081s-.08.805.01 1.199c.5 2.81-1.69 5.25-1 8.06-1.76.88-.19 3.29-1.92 4.19.35.48.69 1 1.27 1.79-2.26 1.17-1.08 3-1.39 4.73l2 1.43c0 1.81-.54 3.63.12 4.73 1 1.67-.6 2.85-.11 4.22.07.235.22.435.43.556s.46.155.7.094c2.1-1.73 1.92-4.12 1.82-6.94l3.16-2.66c1-2.48.46-5.52 2.81-6.86.19-1.44-.24-2.45.39-3.34.53-.3 1.33 0 1.73-.88-.23-.91-.22-1.864.04-2.766.26-.903.75-1.722 1.42-2.374a20.7 20.7 0 0 0 2.9-4.35c.77-1.38 2.42-2.22 2.56-3.89.23-2.94 1.31-5.69 1.95-8.45zm-36 3c.91-4.57-1.72-8.59-2.91-12.87.48-.56 1.15-.88.95-2-.57-.63-1.32-1.45-2-2.27.93-4.56-2.11-8.4-1.9-12.76-.89-.903-1.61-1.96-2.13-3.12a63 63 0 0 0-2.54-7.42c-1.83-3.76-4.25-7.22-6.27-10.9-.67-1.21-1.11-2.31-2.89-1.88a66.1 66.1 0 0 0 1.24 18.72l1.69 1.69v4.16c.7.66 1.76 1.16 1.85 1.8.76 5.59 4.58 10.42 4.05 16.31-.05.58.6.91.58 1.24-.12 3 2.08 5.17 3 7.76.51 1.41 0 2.78.83 4.16a34 34 0 0 1 4.62 11.07c.13.69 1 1.25 1.46 1.88.68.86.66 2.19 1.77 2.76 1.34.69.21 2.21 1.68 2.43.73.74 1.47 1.47 2.16 2.16l.93-.93c-1.69-.69-1-2.14-1-3.35 0-1.45 0-2.88-1-4.08a5.5 5.5 0 0 1-1-4.08c.13-2.9-1.93-5.52-.93-8.34zm63.56 3.77a54 54 0 0 0-5 4.14c-2.1 1.69-5.11 2.65-6.17 5.69a4.4 4.4 0 0 1-2.53 2.09c-1.36.56-3 1.54-2.8 3.57.12 1.23-.88 1.71-1.56 2.32a13 13 0 0 0-3.13 4.2 23.5 23.5 0 0 1-5.44 7.39c1.54 3-2.84 5.13-1.65 8.33 4.86-.35 6.74-5.19 10.6-6.37.18-.817.57-1.573 1.13-2.192a4.74 4.74 0 0 1 2.07-1.338 4.3 4.3 0 0 0 1.47-.84c.43-.377.77-.836 1.02-1.35.66-1.86 2.79-1.91 3.54-3.43.91-1.694 2.1-3.219 3.53-4.51 2.84-2.78 5.66-5.58 8.3-8.19 0-3.81 3.5-4.8 4.94-7.13v-4.53zm-45.22 41.78c-.37 1.16-.75 2.67 0 3.57 1.1 1.39.66 2.7.66 4-.69 1.08-1.93 1.29-2.87 1.87 1.57 2 3.24 1.68 4.94 1.3a19.85 19.85 0 0 0 3.18-9.24c-3.08 2.55-3.37-1.71-5.87-1.46z" fill="#212222"/>
  <path d="M82.7 298.714c1.08 2.1 2.91 3.57 4.62 5.05 4.44 3.85 7 9.08 10.26 13.76 1.49 2.12 3.49 4 4.13 6.75s3.05 4.22 4.2 6.73a19.4 19.4 0 0 0 4.66 6.06 26.55 26.55 0 0 1 7.67 10.79c2.25 6.16 7.26 8.41 12.83 9.71 4.78 1.11 9.61 2.34 14.62 2.09a4.4 4.4 0 0 1 2.25.61c.6.29 1.72-.47 2.5.38 1.73-2 4.401-.2 6.331-1.58 1-.73 2.469-.84 2.929-2.14 5.78-.62 11-2.52 16.79-4.84.61-1.64 3.27-2 4.64-4.16 1.15-1.81 3.8-2.62 5.7-4s3-3.89 5.6-4.56c.54-2.67 3.29-3.53 4.35-5.56 2.32-.25 4.46-.38 6.25.91 2.41 1.74 5 1.19 7.4.49 1.15-.34 2-.85 3.08-.08a5.36 5.36 0 0 0 5.19.39 11.4 11.4 0 0 1 6.14-.74c1.78.19 3.1-.77 4.54-1.21 1.79-.646 3.69-.932 5.59-.84 2.26-2.86 6.89-2 8.64-5.92v-.94c2.42-3.3 5.41-5.36 7.28-8.2 2-3.08 4.89-5.22 6.46-7.16 7.82-3.92 14.92-3.21 22.19-.9 2.37-1.37 5.1-1.16 7.76-.53.71.17 1.34 1.15 2 .26 1.1-1.37 1.41.79 2.35.42.73-.28 1.81.16 2.39-.23a20 20 0 0 1 2.09-1 12.8 12.8 0 0 1 7.24-1.79c4.71.46 8.37-1.52 11.62-5 4.1 1 6.71-3.93 10.88-2.89 2.41-2.1 2.84-4.72 2.53-7.55l6-6v-4l1.77-1.77c.41-3.33 1.87-6.56 1.19-10-.77-3.78-1.37-7.51-3.51-11-1.87-3.07-4-6.15-4.62-10.07-.78-4.62-4.67-9.9-8.24-13.51l-1.42-1.42c-.38-2.76-.32-5.6-3.77-6.92a4 4 0 0 1-2.49-3.9c0-1.33-1.76-2-2.28-3.51a10.7 10.7 0 0 1-.64-3c-4-2.59-5.3-7.06-7-11.31h7c1.09 0 1.87 1.63 3.05.94 3.07-1.78 6.37-.54 9.43-1l2.12 2.13c3-.91 5.83 1.75 8.83.9 1.62 1.41 2.6 3 4.42 3.38-.18.73-1 .76-.46 1.56 6.33 4.1 11.35 9.38 12.77 17.86l2.89 2.36c-.47 3.38 3.07 5.32 1.67 8.79l2.27 1.34v3.41l3 2.46v2.3c.44.83 1.9.13 1.91 1.16 0 1.24 1 1.6 1.57 2.34h5.48c-.18 4.19 1.22 8.12 2.13 12.24l-2.27 2.51c.61 1.75 2.25 2.49 3.14 3.85v2.74l2.05 2.3c-.51 1.66-2.2 3.2-.1 4.79-.5 3.66 1.19 7.48-.89 11.08-.43.75-.06 2-.06 2.94-.6.61-1.19 1.2-1.89 1.89v3.82c-1.42 1.73-3 3.3-3.14 5.73-.13 2.2-1.58 4.23-.87 6.47-2.15 1.91-2.27 4.3-2 6.81-.65 1.24-2.14 1.89-2.35 3.51s-2.06 1.92-2.72 3.27-1.51 2.52-.86 3.9l-3.11 2.82c.57 4.4-2.72 6.48-3.83 9.53-.15.42-.83.65-1 1.08a54 54 0 0 0-2.67 6.41c-1 3.81-3.13 7.33-4.79 11l-1.69.58v2.12c-1.38 1.33-2.45 3.19-4.84 2.5-.12 1.11-.2 1.89-.28 2.58-.41.62-1 .46-1.42.4a6.24 6.24 0 0 1-3.72-1.8 13.1 13.1 0 0 0-4.68-3.15c-3.91 1.25-6.7-3.1-10.43-3.1-2.06-3.19-4.35-5.79-7.61-7.44-1-3.87-5.72-4.09-7.24-7.4h-3.32l-1.41-2.06h-4.62c-2-3.16-5.69-3.37-8.76-3.79-2.87-.4-6.12-1.19-9.12.65-1 .59-2.61.25-3.92.11s-2.2 1-3.58 1.12c-4.69.36-7.76 3.27-10 7.22a29.2 29.2 0 0 0-4 14.32v3.78c-2.69 2.45-1.86 6-2 9.32l-1.58.34c-.77 3.61-4.059 6.41-3.369 10.36l-3.681 3.69c-.52 1.76-1 3.55-1.63 5.62l-4.12 4.11-1.26-1a8 8 0 0 1-5.49 1l-1.84 1.59c.14 1.87 1.2 2.4 3 2.52 1.48-.62 2.51-2.53 4.71-2.77 1.86 1.69-1.8 3.14-.43 5.08l-2.94 2.37c-1.13 4-1.61 7.24-4.25 9.67-1.62 1.5-2.27 3.71-3.06 5.71-.85 2.16-.93 4.63-2.93 6.31-.34.29-.11 1.26-.15 2.08-2.42 2.07-4.24 4.52-4.07 8.17a5 5 0 0 1-1.89 3.74c0 1.27.55 3.14-.11 3.81-1.72 1.74-.25 3.83-1.21 5.56-1.58 2.83-3 5.75-4.68 9 0 2 .16 4.54-.06 7-.12 1.32.87 2 1.06 3.09a4.75 4.75 0 0 1-.62 2.24c-1 2.08-3.7 3.28-3.32 6.6a6.3 6.3 0 0 0-1.33 1 14.6 14.6 0 0 0-3.94 7.39c-.61 3.17-1.38 6.38-2.12 9.56-.92 3.89-1.14 4.7-.67 8.38.08.65.27 1.49 0 2-2 3.07-.41 6.37-1 9.25.81 1 1.54 1.63 2.08 2.49 2.33 3.68 3.91 7.73 6.44 11.36s5.3 5.73 9.24 6.66c1.33.32 1.75 1.4 2.35 1.76 2.86.89 5.5-.37 8.05.89s4.79-1.3 7.41-.63 5-.63 7.42-1.41c2.34-2.63 5.43-4.67 6.91-8.12l-1.09-1.17c1.41-1.7 1.39-3.76 1.06-5.95a5.2 5.2 0 0 1-2.63-3.76c-.43-2.38-2.64-2.13-3.72-3.51h-5.36c-1.665.134-3.339.11-5-.07-1.93-.37-3.29 1.16-5.09 1.08-4.82-.21-8.39 1.93-10.91 6-2.52-1.93-2.31-2-3.16-3.81-2.3-4.81-1.41-10.11-3.06-15.81 3.48 2.48 5.691 1.2 8.091-.74a38 38 0 0 1 8.289-5.23c1.76-.77 3.75-1.79 5.91-1.38.52.1.91.36.79 1 2.15 3.92 6.32 4.74 10 6.35v2.39c1.08 0 1.82.9 2.73 1.34 2.49 1.2 4.18 3.92 7.3 3.9a2 2 0 0 1 1.82 1.42c.16 2.75 2.06 4.84 2.71 7.42.28 1.12.81 2.7.37 3.19-1.84 2 .05 4.84-1.83 6.82-.45.47-.22 2 .18 2.81 1.51 3 .9 5.93-.34 8.72a12 12 0 0 0-1 2.61c-.5 2.58-1.49 5.08-1.87 7.68-.25 1.72-2.1 2.17-2.22 4.14-.18 2.71-1.43 5.34-2.3 8.25-3.26 1.26-5.89 3.81-8.92 5.76a16.7 16.7 0 0 0-4.33.41 25.6 25.6 0 0 1-10.27 1.71c-1.16-.07-2.33 0-2.36 0-2.73-.57-3.84-1.94-5.79-2.1a8.66 8.66 0 0 1-6-2.44c-.77-.83-5.79-2.52-6.95-2.41-2.18.19-4-.8-5.85-1.59a36 36 0 0 0-6.49-2.38c-2.05-.45-3.19-2.71-5.48-2.47-1.85-2.56-4.9-3.7-7-6s-4.43-4.46-6.62-6.65c-1.74.65-3-.57-4.05-1.24a9.33 9.33 0 0 1-4-4.7c-1-.06-2 .29-2.71-.76-2.08-3-6.07-4.19-7.7-7.71-.8-1.75-2.84-1.22-4.25-2-2.23-4.93-7.34-7.86-8.73-12.42a59.2 59.2 0 0 1-9.2-11.32l1.06-1.16a86.4 86.4 0 0 0-9-12.45v-2.69c-.58-.73-1.57-.11-2-1.31a17.5 17.5 0 0 0-6-8.54 8.89 8.89 0 0 0-2.32-7.51c-1.14-1.21-1.62-3-2.67-4.34-2.07-2.61-2.72-6.25-5.85-7.93 0-3-2.35-4.5-3.49-6.68s-2.71-4.2-2.86-7.34l-4.62-4.61a29.7 29.7 0 0 1-4-6.66c-1.1-2.78-4.22-4.43-4.15-8.37l-4-3.3v-3.59l-4.9-4.73a5.6 5.6 0 0 0-.14-2c-1.73-3.77-4.68-7-5.34-11.28-.07-.51-1.25-.85-2-1.34 1.81-1.25 2-2.74 1.21-3.41-1.34-1.2-1.33-2.85-2.11-4.16-1.43-2.41-1.82-5.39-3.57-7.46a16.4 16.4 0 0 1-2.68-4.93c-1.73-4.47-1.68-4.49-5.44-7.35v-4.16a9 9 0 0 1-3.8-5c-.42-2-.89-3.68-2.38-5-.53-.47-1-1-.7-1.69.64-1.64-.57-3-1.2-4-.81-1.29-.55-2.47-.86-3.67-.35-1.35.85-2 1.1-3.08.34-1.51-1-2.19-1.17-3.58-.41-4.62 1.68-9 1.11-13.57 1.84-2.67.63-6.26 2.72-8.86 1.52-1.89 1.29-4.19 1.27-6.19 1.28-1.7 3.61-2.48 3-4.79 3.19-4.92 8.3-6.91 13.06-9.46 1-.54 2.19.17 3.12-1 2.94-3.44 6.83-4.69 10.94-5.41" fill="#059669"/>
  <path d="M82.7 298.714c-4.11.72-8 2-10.75 5.33-.93 1.14-2.1.43-3.12 1-4.76 2.55-9.87 4.54-13.06 9.46.56 2.31-1.77 3.09-3 4.79 0 2 .25 4.3-1.27 6.19-2.09 2.6-.88 6.19-2.72 8.86.57 4.58-1.52 9-1.11 13.57.12 1.39 1.51 2.07 1.17 3.58-.25 1.09-1.45 1.73-1.1 3.08.31 1.2.05 2.38.86 3.67.63 1 1.84 2.34 1.2 4-.27.68.17 1.22.7 1.69 1.49 1.34 2 3.07 2.38 5a9 9 0 0 0 3.8 5v4.16c3.76 2.86 3.71 2.88 5.44 7.35a16.4 16.4 0 0 0 2.68 4.93c1.75 2.07 2.14 5 3.57 7.46.78 1.31.77 3 2.11 4.16.75.67.6 2.16-1.21 3.41.78.49 2 .83 2 1.34.66 4.32 3.61 7.51 5.34 11.28a5.6 5.6 0 0 1 .14 2l4.9 4.73v3.59l4 3.3c-.07 3.94 3.05 5.59 4.15 8.37a29.7 29.7 0 0 0 4 6.66l4.62 4.61c.15 3.14 1.72 5.16 2.86 7.34s3.5 3.72 3.49 6.68c3.13 1.68 3.78 5.32 5.85 7.93 1.05 1.32 1.53 3.13 2.67 4.34a8.89 8.89 0 0 1 2.32 7.51 17.5 17.5 0 0 1 6 8.54c.38 1.2 1.37.58 2 1.31v2.69a86.3 86.3 0 0 1 9 12.45l-1.06 1.16a59.2 59.2 0 0 0 9.2 11.32c1.39 4.56 6.5 7.49 8.73 12.42 1.41.8 3.45.27 4.25 2 1.63 3.52 5.62 4.66 7.7 7.71.72 1 1.74.7 2.71.76a9.33 9.33 0 0 0 4 4.7c1 .67 2.31 1.89 4.05 1.24 2.19 2.19 4.48 4.35 6.62 6.65s5.17 3.42 7 6c2.29-.24 3.43 2 5.48 2.47a36 36 0 0 1 6.36 2.36c1.81.79 3.67 1.78 5.85 1.59 1.16-.11 6.18 1.58 6.95 2.41a8.67 8.67 0 0 0 6 2.44c1.95.16 3.06 1.53 5.79 2.1 0 0 1.2-.06 2.36 0 3.504.139 7-.443 10.27-1.71a16.6 16.6 0 0 1 4.33-.41c3-2 5.66-4.5 8.92-5.76.87-2.91 2.12-5.54 2.3-8.25.12-2 2-2.42 2.22-4.14.38-2.6 1.37-5.1 1.87-7.68.231-.906.566-1.782 1-2.61 1.24-2.79 1.85-5.71.34-8.72-.4-.81-.63-2.34-.18-2.81 1.88-2 0-4.81 1.83-6.82.44-.49-.09-2.07-.37-3.19-.65-2.58-2.55-4.67-2.71-7.42a1.995 1.995 0 0 0-1.82-1.42l-7.54-12c-1.9-.07-4 .26-5.89-1s-4.32-1-6.56-1c.12-.64-.27-.9-.79-1-2.16-.41-4.15.61-5.91 1.38a38 38 0 0 0-8.29 5.23c-2.4 1.94-4.61 3.22-8.09.74 1.65 5.7.76 11 3.06 15.81.85 1.78.64 1.88 3.16 3.81 2.52-4 6.09-6.19 10.91-6 1.8.08 3.16-1.45 5.09-1.08 1.661.18 3.335.203 5 .07h5.39c1.08 1.38 3.29 1.13 3.72 3.51a5.2 5.2 0 0 0 2.63 3.76c.33 2.19.35 4.25-1.06 5.95l1.09 1.17c-1.48 3.45-4.57 5.49-6.91 8.12-2.45.78-4.84 2.07-7.42 1.41s-4.93 1.86-7.41.63-5.19 0-8.05-.89c-.6-.36-1-1.44-2.35-1.76-3.94-.93-6.79-3.15-9.24-6.66s-4.11-7.68-6.44-11.36c-.54-.86-1.27-1.46-2.08-2.49.59-2.88-1-6.18 1-9.25.3-.47.11-1.31 0-2-.47-3.68-.25-4.49.67-8.38.74-3.18 1.51-6.39 2.12-9.56a14.6 14.6 0 0 1 3.94-7.39 6.2 6.2 0 0 1 1.33-1c-.38-3.32 2.28-4.52 3.32-6.6a4.76 4.76 0 0 0 .62-2.24c1.26-.24 1.85-1.33 2.59-2.15a9.75 9.75 0 0 1 6.55-3.11c-1-2.87 1.19-5.26.82-8.28l2.61-2.14c.94-4.12 2.49-7.35 5.36-9.73.12-3.16.71-6 3.21-8.24 1.72-1.52 2.39-3.5 3-5.77a52.3 52.3 0 0 1 4.2-10.22 7.5 7.5 0 0 0 .7-3.21c.87-.7 2-1.63 2.26-1.81 3-7.5 5.65-13.81 10.7-18.81-.42-3.36 1.57-6 3-8.71 1-1.93.8-4.47 2.7-5.87a10.47 10.47 0 0 0 3.65-5c.95-3.16 3.94-5.26 3.83-9 0-1.89 1.82-3.83 2.79-5.69-1-2.31-1.93-4.57-2.92-6.94.8-2 1-4.62 3.24-6 2-1.18 4-2.73 6.18-3s3.68-1.72 5.84-2.26c2.67.76 5.62 1.34 8.41 2.2a89 89 0 0 1 9.23 3 12.4 12.4 0 0 1 6 6.12c.4.84.82 1.66 1.24 2.48a10.5 10.5 0 0 0 6.23 5.25 69 69 0 0 1 7.6 4.56 2.77 2.77 0 0 1 1 2.21c3.65 1.25 7.66 1.9 10.28 5.2a14.58 14.58 0 0 1 9.85-4.07c3 0 6-1.1 9.08-1a10 10 0 0 1 5.41 1.45 3 3 0 0 0 3.44.15c-1.69-2.34-1.32-4.55.47-6.71 2.05-2.48 1.08-5.56 1.39-8.36.88-.74 2.46-.29 2.76-2-.39-3.81 1.56-6.85 4.1-10.14v-3.77c1-.89 1.52-2.11 3.64-1.2-2.1-2.2-1.4-4.05-1.62-6.15l3.19-2.56c-.74-2.14.75-3 1.88-4.15-.18-3.11-.29-6.38 2.86-8.74v-4.06c2.37-2.61 5.7-4.6 3.22-8.65 1.05-.88 2.17-1.82 2.89-2.41 0-2.56-.59-4.58.15-5.75.92-1.45-.09-2.85.31-3.54 1-1.67.16-3.25.64-4.89l1.86-1.86c-.54-3.23 1.75-6.33 1-9.79 1.13-1.32 1.28-3.34 3.13-4.2-1-3.36 1.24-6.34.9-9.63s1-6.18 1.64-9.25c.55-2.77.72-5.71 1.41-8.45.83-3.27.36-7 2.81-9.71l-1.11-1.3c.91-1.61 2.54-2.8 3.17-5.71-.2-3.64.26-8.18 4-11.9v-6.11l3.09-2.48v-4.14c2.76-4.8 3.43-10.47 7.88-14.12v-5l3.09-2.57v-4.68c2.7-.88 1.2-4.68 3.85-5.6.56-2.61-.67-5.36 1.15-7.66-.48-1.4-2.09-2.72-.3-4.28a7.33 7.33 0 0 1-.68-4.34c-2.06-1.31-3.62.07-4.85 1a75 75 0 0 1-11.8 7.74 5.4 5.4 0 0 0-1.54 1.48c-2.41 1-3.06-1.39-4.58-.62-.81-4.18-.13-7.71 3.23-9.77a19.7 19.7 0 0 0 3.42-2.37c3.44-3.46 8.74-4.69 11.1-9.36 2.69-1.06 4.21-3.5 6.39-5.36a6.4 6.4 0 0 0 3.81-1.02c1.85-1.22 4-1.69 5.91-2.62 1-.45 2-.69 2.68.08.84.94 1.86.37 2.74.67l6.06 6.06c.58 3.09 2.93 5.35 4.21 8.16.32.69 1.25 1 1.17 2-.06.79-.17 2 .26 2.33 2.6 2 1.52 6 4.63 7.55v4.32l2.22 1.59c-3 3.38 1.28 6.36-.25 9.23l2.14 2.15c-.89 4.23 1.76 8.36.82 13.11l-3.55 3.2c-1.48-.58-2.58 1.6-3.62 1.31l-5.54-5.57v-4.79c-3.07-3.24-1.94-7.28-2.15-11.35-3.17-2.27-4.15-5.9-5-9.65a18.4 18.4 0 0 0-3.84-7.6v18.16l-2.16 2.17c.81 3-1.29 5.55-2.4 8.17-2.16 5.07-2.54 4.91-2.68 9.1-3.76 1.24-5 4.34-5.23 8-1.47 1 1 1.55.32 2.29-1.54 1.65-.65 3.72-1.1 5.5-1.19 1-1.2 2.6-2.48 3.54-2.32 1.71-2.28 4.69-3.35 7.08-.45 1 .42 1.78 1 2.38-.7 2.69-4.51 4.24-2.2 8-1.25.85-1.89 2.42-2.79 4.12.19 4.69-1.27 9.35-3.24 13.82a16.05 16.05 0 0 0-1.82 7.25c.16 3.86-1.84 7.27-2.51 11-.19 1.07-.29 2.18-.48 3.26a64 64 0 0 1-4 14.41v5c-2.66 1.88-3.06 5-3.94 7.79a77 77 0 0 0-2 9.16 16.47 16.47 0 0 1-4 8.08v5.81c-2 1.94-3.59 4.11-3 7.07-2.17 2.11-4.43 4.06-4 7.42-2.28 1.8-1.44 5.06-3.39 7.12-1.14 1.19-.52 3.58-2.69 4.3.43.49.75.83 1 1.06l-4.85 9.49c1 3.51-1.66 6.19-3.55 9a15.9 15.9 0 0 0-2.5 4.52 8.42 8.42 0 0 1-6.58 1.43c2 2 3.48 3.49 4.93 4.92 1.65 1.62 2.83 3.42 2.71 5.88-.11 2.28 1.34 4.1 1.84 6.67l-1.75 3.22.92 1c-1.84.84-1.91 2.94-3.25 4.17-1.16 1.06-2.71 1.93-2.86 3.79-3.55 2.23-5.91 6.5-10.83 6.4-2 1.48-4.35.92-6.58 1-1.54-2.25-4.61.22-6.17-2a3.66 3.66 0 0 1-4.23-2.73c-.84-2.44-2.47-4.06-4.11-5.8-2.3-2.45-2.29-5.75-3-8.75a21.7 21.7 0 0 1-.07-4.94c-7.37-5.21-15.34-8.79-21.63-14.71h-2.19c.07 2.19-1.17 3.82-2.05 5.64a5.08 5.08 0 0 1-2.55 2.43c-2.46 1.36-5.07 2.65-7 4.84h-10c-1.7-2.51-5.67-1.82-6.79-5a4.5 4.5 0 0 0-1.82 2.82 15.8 15.8 0 0 1-2.92 5.77 50 50 0 0 0-7 12.06c-1.69 4.43-4.55 8.13-7 12.07a59 59 0 0 0-4.81 9.49c-.92 2.3-2.87 4.19-3 6.72-.16 2.73-2.57 4.19-3.35 6.63a22.4 22.4 0 0 0-.74 4 14.8 14.8 0 0 0-4.13 6c-.65 2-2.25 3.72-3.43 5.56-2.18 3.42-5.71 6-5.78 10.85 1.82.84 3.9-1 6.11-1.32 3.09-.4 6.06-1.73 9.27-1.64.83 0 1.83.3 2.46-.05 2.87-1.61 6-1.86 9.67-2.09l1.26-2a34.8 34.8 0 0 0 15-1.93 15.7 15.7 0 0 1 6.09-.95c.66 0 1.59.28 1.94-.06 2-1.92 4.68 0 6.56-1 2.21-1.19 4.41-.57 6.5-1.12a8 8 0 0 0 4-2.76c2.133.092 4.269.072 6.4-.06a10.8 10.8 0 0 0 3.48-1.12 7.55 7.55 0 0 1 3.67-.81h5.18c3.14-2.34 6.74-2.44 10-2.84a29.6 29.6 0 0 0 7.37-1.59c2.48-1 5.21-1 7.53-2.27a27.7 27.7 0 0 1 7.81-2.84 16.6 16.6 0 0 0 4.83-1.52c1.51-.87 3.64-.32 4.66-2 1.18-1.92 3.25-.58 4.88-1.58 2.29-1.41 5.25-1.72 8.44-2.65 3-4.34 9.09-6.08 12.13-11.69v-3.48c2.67-3 3.32-5.4 2.16-8.36 3.14-1 .71-4.61 3.08-6-.52-.72-1.2-1.23-1.19-1.73 0-1.72-.29-3.4.85-5.13s-1.17-3.54-.9-5.51a.62.62 0 0 1 .2-.4c1.38-1 .68-2.43.77-3.67s-.52-3.08.13-3.9c1.41-1.78.94-3.92 1.71-5.81s.18-4.58.18-6.91c.19-1.07 1-2 1.87-1.91 1.87.2 2.56-1.22 3.63-2 2-.14 3.81.53 5.65.79 2.38.34 2.63 2 3.53 3.76-1 .62-.46 1.94-.74 3.08-.5 2.09.92 4 .19 6.21s-.14 4.62-.14 6.95c0 1.5.59 3.44-.13 4.39-1.21 1.59.45 2.48.2 3.78-.42 2.17-1.6 4-2 6.16s.51 4.59-.56 6.76a2.25 2.25 0 0 0-.47 1.43l.89 1.07c-1.82 2-1.55 4.56-2 7-.69 3.45-1.46 6.89-4.33 9.74-2.34 2.33-4.89 4.44-7.16 6.85-5.53 5.89-7.48 6.73-13.7 8.88-.3.1-.8-.13-1 0-4.22 4-9.92 4.3-15 5.87-3.11 1-5.9 2.75-9.18 3.24-.66.1-1.18 1.11-2 1.87-2-.12-4.37-.2-6.2 1.27-1.6 1.29-3.62 1-5.36 1.5-2.306.526-4.645.9-7 1.12a26 26 0 0 0-6.67 2 5.5 5.5 0 0 1-2.47 0c-2.32-.14-4.5.14-6.19 2-2.2.21-4.38-.17-6.61.91-1.91.92-4.53-.69-6.55 1.08-.28.25-1 .14-1.47 0-2.83-.72-5.31 1.23-8.08 1a12.34 12.34 0 0 0-7.23 1.83c-.63.37-1.61.13-2.43.15-2.54.06-5-.16-7.37 1.56a9.3 9.3 0 0 1-5.37 1.36c-4.08-.08-8.05.71-12.08 1-1.55.1-2.61 1-4.06 1.19-4.56.62-9 1.74-13.65 2.06-2 .14-4 1.07-6 .82l-1.75 1.76c-5.6 1-10.87 3-16.46 4.63-3 5.88-6.31 12-9.21 18.73.78-.17 1.35-.13 1.65-.39 1.43-1.29 2.57-3.14 4.56-3.43s2.7-3.1 5.07-2.27c3.6-3.74 8.28-3 12.74-3 2.06 0 3.85 1.91 5.79.76 1.18.88 2 2 3 2.13 3.35.31 6 2.66 9.23 3.13a2.15 2.15 0 0 1 1.48 1.13c1.36 3.49 4.69 5.8 5.51 9.73.38 1.84 2.12 3.45 3.38 5a44 44 0 0 1 3.9 5.88 3.93 3.93 0 0 1-.52 5 24 24 0 0 0 1.69 3.21 2.82 2.82 0 0 1 .33 2.79c-1.61 3-.86 6.09-.87 9.12a28.5 28.5 0 0 1-3.18 13.17c-.83 1.58-.42 3.14-1.1 4.55-1.2 2.5-1.62 5.41-4 7.18l1.27 1.82c-3.12 7-8.9 11.39-15 16-1.27 2 1.69 2.61 2 4.28-.16.63.59.8.67 1.21a17.7 17.7 0 0 0 6 9.94 6.12 6.12 0 0 1 2.35 4.48c0 .565.201 1.112.567 1.543.367.43.875.716 1.433.807 2.19 2.51 2.28 6.47 5.44 7.75.89 1.46.09 2.86.66 3.69.471.813.793 1.703.95 2.63 1.46 5.13 1 6.42-3.71 9.08-.312.242-.595.52-.84.83a32.5 32.5 0 0 0-5.31 0c-2.93.48-5.49-.79-7.57-2.2a51 51 0 0 0-6.47-3.77c-1.57-.76-2.35-2.23-3.81-3.11h-2.92c-1-3.56-4.4-4.22-7.3-6.71-.52-1-1.41-2.84-2.45-5l-3.14-1.54c-.84-2-2.86-3.48-4.49-5.23 0-.5.21-1.17 0-1.48-3.31-4.11-5.87-8.83-9.9-12.43v-2.06l-3.86-3.47h-3.7l-2.66-2.91h-4.27c-.89-1.47-2.49-2.24-4-3-.8-.39-1.95-.07-3-.07l-1.7-1.94h-4.35c-2-3.22-5.73-3.39-8.36-5.58v-2c-2.37-.85-3.78-2.88-5.52-4.52-1.15 0-2.64.25-3-1.07-.84-3-3.58-4.1-5.74-5.44s-4.13-4.21-7.53-3.42a10.12 10.12 0 0 0-2.6-6c-1.44.39-2.63-.94-4.29-1.19-.66-.57-.33-1.73-1.3-2.37-2.51-1.65-4.1-4.3-6.16-6.42s-3.85-4.34-5.8-6.5a41 41 0 0 1-3.41-4.61c-1-1.48-1.5-3.36-2.64-4.88-.24-.32 0-1 0-1.4-2.94-3.56-6.42-6.73-7-11.66.37-1.6-1.14-2.53-1.35-3.8-2.2-.79-3.82-1.91-3.66-4.86l-3.1-2.52c.86-5.07-4.58-6.93-5.16-11.77l-2.75-2.23v-3.34c-3.71-1.07-3.69-4.27-4.29-7.73l-4.68-4.68c-.11-2-.11-2-5-7.58v-3c-4.33-3-4.36-9.6-9.82-11.78-.21-1.83-.58-3.67-2.1-5a15.3 15.3 0 0 1-3.3-5.1c-.43-.9-.56-2.12-1.59-2.87a13.3 13.3 0 0 1-2.63-3.33c-.82-1.16.27-2.85-1.28-3.47-1.82-.73-.74-2.72-1.7-3.77H63.1c.51-1.85-.48-3.63-1.18-5-.92-1.76-.33-3.7-1.5-5.38-.73-1.06-.68-2.57-1.75-3.75a9.24 9.24 0 0 1-1.67-4.24c-.85-3.8-2.13-7.54-5.89-9.65-3.67-7.63-7.36-15.25-10.95-22.91a6.4 6.4 0 0 1-.05-2.48c-4.48-4.65-4.76-5.51-3-9.41-1.28-2.55-1.7-5.1-.11-7.73a7.8 7.8 0 0 1-2-4.42 7.5 7.5 0 0 0 2.41-5.73c0-.22.67-.64.64-.68-2.47-3.28.44-5.88 1.13-8.73.57-2.34 1.35-4.62.9-7 1.57-2.29 3-4.56 4.35-6.82 1.21-2 1.42-4.7 2.07-7.09a14.8 14.8 0 0 1 3.36-1.85c.91-.22 1.75-.67 1.91-1.29.64-2.5 2.92-3.14 4.55-4.56 2-1.72 3.84-3.12 6.67-3.36 1.51-.12 3.1-1.48 4.32-2.63 2.13-2 5.11-2.32 7.34-4.12.6-.48 1.92-.07 3-.07l2.8-2.92h4.31l2.39 2.6v2.4zm161.6 316.15c3.79 1.19 7.24 2.53 10.17 4.94 1.1.89 2.19.94 3.67-.45-3.62-2.81-5.69-6.52-8.61-9.58v-1.91c-1.33-1.32-3-2.42-3.85-3.94-2.91-4.91-5-10.24-8.08-15.09-.22-.35 0-1 0-1.54.68-1.75 2.29-2.6 3.91-3.51-1.51-.18-2.72-.44-4.26.25s-3.05 1.59-4.9 1.42c-3.23-.3-6.23 1.55-9.56 1.07-1-.14-2.17.9-3.11 1.33v2.09c3.33 3.52 7.14 6.48 9.49 10.66.73 1.29 1.38 2.78 2.59 3.33 2.18 1 3.45 2.89 5.2 4.29 1 .78 1.57 1.86 3 2.3a6 6 0 0 1 4.34 4.34m116.5-221.22c-1.87-2.18-3.61-4-6.21-5-4.24.9-8.4-1.94-12.81-.73-.63.71-1.45 1.19-1.34 2.45.18 2 0 4 .06 6 .11 4 1.1 7.62 5.24 9.3 1.08.45.37 1.52 1.14 2h6.26c.25-.68.46-1.26.67-1.85h1.91c2.62-1.44 2.91-4.09 3.76-6.46l-1-1.07c1.69-1.27.51-3.61 2.32-4.68zm-83.9-28.71c2.69.43 1.05 2.45 2 3.72 2.66-.25 2.3 2.4 3.46 3.59l-.93 1.21c.29 1.71 2 2.38 2.53 4 1.12 3.41 3.85 4.64 7.6 4 .6-2.39 2.48-3.75 3.9-5.28v-7a30.3 30.3 0 0 0-9.72-7.53c-2.81-.22-5.85-.18-8.84 3.22zm-41.58 164.82c-3.22 1-6.27 1.47-9.09 2.72a11 11 0 0 1-6 1c-.17 0-.41.41-.6.61a1.26 1.26 0 0 0 .48 1.34h2.12l1.69 2c3.74 0 7.21-.11 10.68.05a3.35 3.35 0 0 0 2.89-1.44v-5.17c-.74-.62-1.84-.18-2.17-1.15z" fill="#212222"/>
  <path d="M677.21 541.444c1.79.26 2 2 2.57 3.14 1.38 2.81 2.78 5.67 2.38 9.29-1.09 1.61-3.45 2.62-4 5v10c0 1.41.36 2.82-.9 4.16-.61.66-.17 2.16.68 2.82-2.76 4.73-2 9.56-1 14.89-.54.77-1.35 2.32-.67 3.55 1.45 2.67.79 5.41.89 8.12.12 3.66-.64 7.48.18 10.94 1.24 5.22.46 10.4.82 14.43 1.53 5.35 4.8 5.95 8.65 5.46 4.45-2.6 7.72-6.59 11.09-10.34a15.5 15.5 0 0 0 3-6.63c.42-1.91 2.77-2.55 2.24-4.61 1.9-2.89 1.92-6.48 3.59-9.51.93-1.69 1-3.84 1.72-5.76.94-2.38 2.62-4.23 3.52-6.63l-.51-.55c1-1.67.19-4.18 2.52-5a75 75 0 0 1 2-10.32c.82-3.49 1.64-7 2.18-10.61 2.86-2.45 1.52-6.71 4.34-9l-1.34-1.46a2.4 2.4 0 0 1 .35-1.36 7.77 7.77 0 0 0 1.68-5.3 8.1 8.1 0 0 1 .67-3.19c.72-2.19 1.83-4.44 1.33-7-.21-1.08.59-2.18.75-3.11.33-1.87 1.51-3.5 1.29-5.54-.17-1.52.54-3 0-4.69s-.11-3.92-.11-6c2.21-.72 3.89.36 5.22 1.58 3.36 3.09 6.35 6.59 11 9.15h2.17c1.34.83 1.83 2.22 2.35 3.67-2.71 2.85-1 7.94-4.66 10.76v3.13l-1.83 1.39c-.62 2.08.37 3.74-.88 5.28-1 1.21-.12 2.87-.33 3.92-2.61 4.65-4.35 9.14-4 14.26-1.06 1.17-2.65 2.11-1.92 4.16l-2.14.75a17.43 17.43 0 0 1-2 9.86l1.1 1.55c-.13.42-.13.84-.33 1-2.33 1.75-3.1 4.63-3.51 7-.73 4.19-2.18 8.26-2.34 12.6a7.88 7.88 0 0 1-2.06 5.38c2.33 2.36 1.05 4.51-.66 6.59-.51 2.15.59 4.58-1.15 6.54.49 1.14 1.5 2.14 1 3.65l-1.7 1.61a9.9 9.9 0 0 0 1 7.44l-2.22 4.26c-.14.82.61 1.09 1 1.6-.84 4.9-2.94 9.68-.91 14.38l-2.07 4v16.48c.05 3.24-1.71 6.26-1 9.57.16.8-.26 1.8.07 2.47a5.92 5.92 0 0 1-1.3 7.46c.63 2.19 2.23 4.08.27 6-.09.08 0 .32 0 .49-.07 4 .49 8.14-.95 12.11l-2.1 1.9c.52 3.71-1.06 7.23-1.75 10.91s-1 7.13-2.64 10.8a10.7 10.7 0 0 0-5.37-1.17c-2.32.15-4.67-.09-7 .06-6.89.43-13.64-1.53-20.56-1.18a6.85 6.85 0 0 1-6.15-2.88c-3.76 1.23-7.34 3.5-11.33 1-1.87 1.18-4.16 1.79-5.87.57-3-2.14-6.21-1.33-9.54-1.65-1.92-.81-2.51-3-3.82-5-.19-.57 1-.85 1.15-1.66.39-.88-1.92-1.73 0-2.66-.56-3.6 1.4-6.93 1.08-10.55-.28-3.19.84-6.22 1.72-9.25.152-.451.226-.924.22-1.4a14.3 14.3 0 0 1 1.87-8.72c.248-.614.29-1.291.12-1.93-.6-3.78 1.64-7.29 1.07-11.08 0-.3.61-.72.93-1.08-1.78-1.4-.66-3.35-.94-4.66l3-5.89c0 .07-1.38.08-.76-.72.28-.38.65-.61.73-1.21.26-2.2-.35-4.35.79-6.66.89-1.82-.18-4.42 1.12-6.52.3-.48.07-1.3 0-2a28.9 28.9 0 0 1 1.77-11.24 6.72 6.72 0 0 0-.76-6.48c1.48-2 1-4.51 1.91-6.69.66-1.6-.68-3.85.58-5.21s-1.26-2.79.44-4.08c.64-.48-1-1.12-.94-2 1.21-2.23 1.72-4.45 0-6.68 1.81-3.55.7-7.36 1-11.06.08-1-1.27-1.89-.11-3.27.46-.55-1.13-2-1-3.48.15-1.32 1.42-2.12 1.15-3.58a22 22 0 0 1-.05-4c.5-3.22 1.63-6.29 2.27-9.5a20.68 20.68 0 0 1 6.74-11c2-1.81 4.14-3.63 4-6.76 3.43-3.65 4.68-6.36 5-11.17 1.65-1.82 4.03-3.58 4.9-6.45" fill="#059669"/>
  <path d="M211.56 178.255c-3.8-2.87-4.48-7.25-5.91-11.18-.79-2.18-.88-4.54-2.63-6.44a6.43 6.43 0 0 1-1.48-3.35c-.52-3.56-3.71-6.12-3.91-9.87l.95-1c0-.35.15-.82 0-1-1.63-1.58-1.54-3.68-2.09-5.66a29 29 0 0 1-.83-8.61c0-1-1-1.24-1-2.39 1.51-1.35.93-3.37 1-5.37 2.61-2.24 4.83-4.88 8.14-6.63 2.84-1.5 5.25-3.91 8.51-5 .7-1 .17-2.19.33-3.36 1.53-.22 2.41-1.42 3.59-2.56 3.15.86 6.24-1.09 9.4-.79 3.33.31 6.26-1.85 9.44-1 2.28 1.85 5.14 2.33 7.55 3.8a28.8 28.8 0 0 1 6 4.68c1.56 1.63 3.17 3.16 5.53 3.52 1.87 1.77 1.16 4.42 2.27 6.56 1.21 2.34 3.51 3.42 5 6.29v3.69c2.47.12 3.07 2.06 4.19 4.52.08 2.18-.47 5.31.88 8.26l3.61 3.27c.56 1.21-.28 1.2-.26 2 .75.85 2.3 1.79 1.74 3.69 1.79 2.09.74 5.35 3 7.24-.86 3.1 2.08 5.14 2.17 8.16.07 2.48 1.6 4.93 2.58 7.35.58 1.45 0 2.93.36 4.46 1.51.73 1.67 2.58 2.84 3.85v3.67l4 5.49c-1.16 2.65 1.55 4 2.17 6.12a25.7 25.7 0 0 1 .83 6.67c4.3 4.14 8.57 8.34 8 15l3.59 3.58c1.36 5 5.61 7.45 7.29 11.56-.34.4-1 .73-.79 1.94 2.21 2.23 4.67 4.68 6.13 8 1 2.35 4.75 5.6 6.68 6.73v4.22a4.63 4.63 0 0 1 3.93 4.33c.25 1.9 1.47 3.57 1.19 5.56-.06.43 0 1.16.32 1.32 2 1.13 1.09 3.31 1.84 4.75 1.55 2.94 2.1 5.74.27 9.47-1.78 1.6-3.66 4.35-6.72 5.75-.67 2.07-3.26.41-4.12 2.12-4.32.82-8.1 2.88-12 4.86-2.45 1.25-5.08 2.5-8.06 2.26-1.59-.13-3.1.74-4.52 1.18a12.2 12.2 0 0 1-5.13.73c-1.34-.16-1.94 1.12-3.13 1.07l-1.54-1c-2.22 1.36-4.44-.92-6.68.21-.65-.71-1.13-1.74-1.78-1.87-3.52-.7-4.92-3.61-6.75-6.08-1.32-1.76-3.55-3.15-3.87-5.27-.39-2.63-2.18-3.3-4.06-4.59.5-3.35-2.87-3.86-5-5.68l-.16-3.31c-1.53-1-1.92-2.83-3-4.21-.85-1.12-.35-3.17-2.61-3.46-.57-.07-1-1.8-1.33-2.81-.21-.58.18-1.29-.45-1.82-3-2.56-4-6.3-5.74-9.59-.72-1.34-1.15-3.08-2.79-3.79v-5c-1.51-1.72-2.78-3.35-3.13-5.78a15.33 15.33 0 0 0-3.8-8.43c-2-2.18-3.66-4.9-3.07-8.16.44-2.37-1.7-4.24-1-6.56-1.12-1-3.24-1-3.06-3.19-1.78-.7-.46-2.73-1.64-3.87a2.23 2.23 0 0 1-.971-1.426 2.23 2.23 0 0 1 .331-1.694c.43-.62-2.29-1.68-1.72-3.51-3.45-3.07-2.21-8.59-6-11.5-.74-3.66-2.97-6.89-2.92-11.12m36.1 52.11c1.76 1.48 2.48 3.86 3.09 6.63.84 3.83 3 7.38 4.57 11 .5 1.15-.31 3.17 2.06 3.06-.15 1.49.63 2.76 1.23 4a7.17 7.17 0 0 0 3.76 3.21c.42 3.11 3.54 4.85 4 7.43.56 3.14 3.74 4.8 3.92 7.76 4.45 5.9 8.9 11.78 13.52 17.16 3.15.332 6.335.019 9.36-.92 1.34-.35 2.55-1.4 3.76-1.71a84 84 0 0 0 9.19-3.17c2-.78 3.72-2.2 6.05-2.36.94-.06 1.79-1.35 2.28-1.75v-4.72c-2.62-.84-1.37-4.21-3.58-5.43-.72-.39-.15-1.24-.36-1.83-1.11-3.17-2.27-6.31-5.95-7.34.09-2.53-1.5-4.09-2.73-6-2.19-3.36-4.07-6.87-7.41-9.33a10.43 10.43 0 0 1-3.75-5.39c-1.25-4.42-4-8-5.94-12-1.24-2.63-2.43-5.63-5.15-7.36.19-1.61-1.69-2-2-3.16-1.31-5.08-4.62-9.08-7-13.55.12-.82 1.35-1.08 1-2.13-3.4-3.06-2.13-8.59-6.12-11.27 1.09-4.53-2.28-8-1.91-12.33l-2-1.49v-7.13c-.4-1.85-2-2.82-3.09-4.16v-3.17l-2.91-2.56v-4.06c-1.18-1-1.33-2.5-2-3.74.35-.4.66-.77 1.1-1.29-1.82-1.06-2-3.56-4-4.19-.05-1.22 1.32-1.42.84-2.84-2.29-1.42-3.09-4.14-3.9-6.89.73-.55 1.35-1.1.94-2.08-3.37-1-4-3.72-3.88-7.08-5.74-3.71-9.48-9.74-15.34-14.29a1.86 1.86 0 0 0-1.31 0c-3.91 2.56-8.51 3.67-12.49 6-1.66 1-3 2.56-4.5 4h-1.85l-1.45 1.45v10c2 1.92 3.36 4.19 3 7.17-.31 2.32.75 4.35 1.6 6.33.63 1.47.6 2.43-.54 3.46 1.11 1.52 2.89 2.5 3.42 4.51a18 18 0 0 0 5.57 8.58v3.22c2.6 1.58 3.25 4.37 4.41 7s1.66 5.64 2.56 8.43 3 5.1 3.88 7.86 3.34 4.93 4 7.82c.29 1.21 1.46.78 1.64 1.24.45 1.15 1.54 2 1.45 3.41s0 2.64 0 3.91l1.82 1.82a23 23 0 0 0 6 14 11 11 0 0 1 2.19 4c-.38.69-1.29.86-1.06 2.26z" fill="#212222"/>
  <path d="M395.44 370.635c0 2.33.631 4.91-.179 6.91s-.301 4-1.711 5.81c-.65.82 0 2.58-.13 3.9s.61 2.68-.77 3.67a.62.62 0 0 0-.2.4c-.27 2 2.07 3.73.9 5.51s-.839 3.41-.849 5.13c0 .5.669 1 1.189 1.73-2.37 1.43.06 5-3.08 6 1.16 3 .51 5.37-2.16 8.36v3.48c-3 5.61-9.14 7.35-12.13 11.69-3.19.93-6.15 1.24-8.44 2.65-1.63 1-3.699-.34-4.879 1.58-1 1.67-3.151 1.12-4.661 2a16.6 16.6 0 0 1-4.829 1.52 27.7 27.7 0 0 0-7.861 2.89c-2.32 1.31-5.05 1.26-7.53 2.27a29.6 29.6 0 0 1-7.369 1.59c-3.31.4-6.91.5-10 2.84h-5.181a7.55 7.55 0 0 0-3.67.81 10.8 10.8 0 0 1-3.48 1.12c-2.13.132-4.267.152-6.399.06a8 8 0 0 1-4 2.76c-2.09.55-4.29-.07-6.5 1.12-1.88 1-4.531-.87-6.561 1-.35.34-1.279.1-1.939.06a15.7 15.7 0 0 0-6.091.95 34.8 34.8 0 0 1-15 1.93l-1.26 2c-3.69.23-6.799.48-9.669 2.09-.63.35-1.631.05-2.461.05-.36-1.61-2.68-1-3-3 0-.31-.18-1.29.17-1.56 2.2-1.68 2.72-4.23 3.42-6.59a19.8 19.8 0 0 1 3.361-6.6 28.6 28.6 0 0 0 4-6.81c1.1-2.82 4.229-3.95 5.119-6.87a6.2 6.2 0 0 1 1.08-2c1.44-1.5 1.05-4.4 3.73-4.89.65-2.18 2.25-3.75 3.42-5.59a35.6 35.6 0 0 0 5-10.58l5.26-5.45q.3.031.6 0c2.41-.59 4.41-2.16 6.91-2.62 2.25-.42 4-2.23 6.45-2.57 1.08-.15 1.9-2.1 2.72-3.1 2.95 1.59 5.76 1.25 8.15 2.55 2.06 1.55 3.69 3.66 6.87 3.91a5.6 5.6 0 0 1 4.171 2.84h6.059c.47.48.941 1 1.451 1.45v4c1.17 1.1 2.489 2.16 2.069 4.08 2.35 2.23 4.33 4.91 7.36 6.31 1 .45 2 .37 3.12.94 1.25.67 3 .34 4.52 1.11 1.31.66 3.25-.55 4.5 1 1.75-2.5 3.331.73 5.211.16 1.67-.51 3.629-.11 5.769-.11 2.41-3.53 6.83-4.5 10.31-6.91 1.51-1 2.84-1.92 3.32-3.75.55-2.06 2.47-2.94 3.78-4.35 2.23-2.42 3.001-5.77 4.821-8.49a21 21 0 0 0 2.23-3.24v-4.22c4.14-6.23 8.89-11.52 11.52-19z" fill="#059669"/>
  <path d="M154.021 166.735c.69.74 1.219 1.43 2.189 1.13.35 0 .81.09 1-.09 1.88-2 4.26-2 6.72-1.92a62 62 0 0 1 6.4.25c2.76.41 4.89 2.57 7.82 2.9 1 .12 1.93 1.719 2.83 2.699a11.67 11.67 0 0 0 5.42 3.38c.74.72.17 2.101 1.08 3.271a69.4 69.4 0 0 1 7.51 12.339 20.1 20.1 0 0 0 5.46 7.421c1 4 1.56 7.93 3.42 11.36s4 6.31 6 9.42l-1.33 1.59 3.08 2.52c.06 2.58-.22 4.649 2.43 5.949 1 .48 1.36 2.731 1.51 4.221.22 2.1.46 4 2.75 4.79 1.14 3.91 5.12 6.36 5.39 10.78.07 1.12 1 2.21 1.68 3.26.41.67 1.3 1 1.25 2-.14 3 1.6 4.81 4 6.28a14.3 14.3 0 0 1 2 2 5.47 5.47 0 0 0 1 4.659c1.83 2 2.42 4.771 4.3 6.771a5.82 5.82 0 0 1 1.55 3.3c.17 2.35 1.6 3.76 3.19 5.35-.89 2.11 1.11 3.829.95 5.939l6.71 6.711c.07.3.29.65.2.9-.54 1.46 1.47 2.12 1.05 3.6-.34 1.19-1.19 2.12-1.2 3.57 0 .83-.75 1.92-.88 3.07-.26 2.28-1.2 4.159-3.72 4.909a4.8 4.8 0 0 0-1.65.701c-2.57 3-6.13 4.409-9.35 6.419a42.8 42.8 0 0 1-10.18 4.38 92 92 0 0 1-14.23 2.931c-3.7.54-7.77 1.13-11.59-.71a2.78 2.78 0 0 0-3.58.81c-1.09-.33-1.43-1.54-2.6-2-1.83-.67-4-1.27-4.37-3.76 0-.27-.41-.53-.68-.7-3.28-2.11-5.17-5.581-8.06-8.071a31.3 31.3 0 0 1-6.84-9.199c.34-1.89-.44-4.161-.94-6.551l-3.57-3.24a57.8 57.8 0 0 0-7.4-16.919l.85-.851c-3.1-2.59-4.21-6.629-6.94-9.509a4.6 4.6 0 0 1-1-2.07c-.18-.79.221-2.21-.129-2.38-2.23-1.13-1.511-3.8-3.061-5.34a9.45 9.45 0 0 1-2.72-4.79c-.38-2.6-2-4.19-3.24-6.2-1.41-2.32-2-5.15-2.86-7.78-.25-.74.051-1.51-.369-2.35-1-1.92-1.381-4-2.421-6-.94-1.8-1.66-4.001-2.7-5.831s-1.45-3.759-2.24-5.589-2.94-3-2.67-5.42a4.6 4.6 0 0 0-.67-1.67c-3.79-6.41-3.93-6.761-5-13.941-.06-.39-.62-.719-1-1.089a2.21 2.21 0 0 0 1-2.08c-.44-5.23 1.65-9.86 3.62-14.47 1.47-3.42 4.62-5.06 8-5.75 1.43-.29 3.14-.6 3.89-1.37 1.91-2 4.37-2.43 6.64-3.42 2.14-.93 4.321-.01 6.301-.52m-10.371 45.52c1.47 1.59 1.33 4 2.54 5.47 2.81 3.45 3.65 7.31 3.45 11.67 2.37 1.51 3.51 4 4.55 6.5 2.33 5.52 4.46 11.13 6.65 16.63.66.27 1.58.37 1.74.77 1.08 2.71 3.48 4.91 3.2 8.13l2.85 2.83c-.14 4.33 3.42 7.259 4.32 11.679l3.62 3.241c1 4.72 1 4.72 3.06 7.07-.05 2.33-.17 4.719 1.68 6.699 3.45 3.71 5.47 8.31 7.78 12.74 2.09 1.14 6.27 5.81 8.08 9h1.93c.89.4.06 1.72 1.2 2 3-.08 6 .16 9-.87a17.3 17.3 0 0 1 3.28-.709c1.81-.23 3.6-.37 5.41-.45.25 0 .45-.52.73-.64 5.89-2.39 11.09-6.11 16.79-8.86a1.667 1.667 0 0 0 .94-2c-1.18-.76-3-1.361-3.79-3.081l1-1a9.1 9.1 0 0 0-2.5-4.339c-.93-.89-2.17-1.801-2.51-2.931-1-3.33-3.29-6-4.52-9l-1.64-.329c.5-1.91-.34-3.47-.92-5.09s-.79-3.411-1.81-4.571a25.7 25.7 0 0 1-2.35-3.579c-.93-1.47-1.53-3.07-2.29-4.57s-1.71-3-3.54-3.43a3.25 3.25 0 0 0-1-3.09 12.63 12.63 0 0 1-4.5-7.56c-.48-3.27-3.51-5.241-3.64-8.511-2.05-1.4-1.499-4.229-2.919-5.729a12.17 12.17 0 0 1-2.851-6.34c-.76-3.66-3.14-6.84-3.05-10.72-2.38-2.4-1.85-6.29-4.49-8.68a5.5 5.5 0 0 1-1.55-3.31c-.27-3.16-2.26-5.74-3.62-8.45-1.58-3.18-3.61-6.08-4.53-9.62-.45-1.74-1.73-3.28-2.75-4.84-2.6-4-6.2-7.15-9.51-10.54h-7a10.5 10.5 0 0 1-4-3 8.87 8.87 0 0 1-5 3c-2.13.42-3.2 1.89-3.86 3.88-3.16.84-5.68 3-8 4.3-2.75 5-2.89 10.13-2.5 15.72l2 1.559c-1 3.32 2.41 5.271 1.95 8.241a4.2 4.2 0 0 1 2.94 1.779zm311.79-96.39c-1.95-1.25-2.39 2.1-4.21 2s-2.68 1.57-4.22 2h-4.17l-1.23 1.64c-10 2.58-19.67 1.37-29.78.18-2.94-2.22-7.06-2.63-10.91-3.67a42 42 0 0 1-6.18-2c-.65-.28-1.57-1.22-1.91-.86-1.47 1.58-2.49-1.52-3.8-.23-1.14-1.16-2.24-2.42-4.14-2.06.34-1.93-2.23-1.47-2.41-2.9-.07-.58-.27-1-.78-1-3.49 0-5.75-2.33-8.06-4.41-1.31-1.18-4.36.06-4.18-3.07-1.82-.49-2.77-2.11-4.17-3.16-2.54-1.91-5.19-3.61-6.68-6.64-.54-1.09-2.2-1-3.14-2.08a3.9 3.9 0 0 1-1-3.24c-3-2-4.18-5.7-7.07-7.87.81-1.85-1.23-2.94-1-4.67.22-1.55.37-3.19-.87-4.63-.35-.4 0-1.44.37-2.26 1-2.36.77-3.2-.37-5.69.42-3.24 3.5-5.42 3-9.06 3.9-1.23 5.55-6.27 10.42-6.2 1.95-1.77 3.56-4.19 6.78-4a3.3 3.3 0 0 0 2-1c2.58-3 6.55-3.79 9.49-6.17 1.67-1.36 3.88-1 5.81-1.61s4.33-.31 6.58-.95a10.9 10.9 0 0 1 6.6.61c2.5.92 5.59.35 8.41.18 5.24-.32 10.31 1.22 15.57 1.23 3.21 0 6.36 2.13 9.71 2.91 2.688.65 5.265 1.69 7.65 3.09 2.43 1.45 5.11 2.27 7.55 3.61a5.92 5.92 0 0 1 2.67 3.1h1.74c.3.14.48.17.57.28 2.49 3.29 6.43 4.73 9.43 7.39 1.06.94 1.71 2.4 3.45 2.55a2 2 0 0 1 1.36 1.36c.72 3.46 3.19 5.32 6.13 6.82l-1.08 1.18a20 20 0 0 0 4 8c0 1.18-.54 3 .11 3.72 1.33 1.55-.47 2.48-.2 3.78.24 1.15.71 2.73-1.1 3.44 2 3.58 1.53 6.82-.63 10 1.42 1.18-.37 2.31-.31 3.56.05 1.09-1.25 2.16-.93 3.53-4.66 4.53-9.1 9.41-14.87 13.27m-32.54-68.87c-1.25 0-3.07.56-3.8-.1-2-1.86-5 .24-6.76-1.9-5.539.04-11.075-.251-16.58-.87-5.64-.49-11.41-.67-17.05 1.17-4.31 8.2-5.35 13.92-3.27 18.17-1.49 3-1.32 4.22.82 6.82 1.65 2 4.13 3.29 5.2 5.84s4.22 2.45 6.08 4.24 5.18 2.13 7.17 4.31a1.6 1.6 0 0 0 1.36.25c1.64-.52 2.87.62 4 1.27 5.27 3.08 11.28 3.38 17.54 5.26.17.12.53 1.12 1.44 1.28l1.6-1.15c.6 1.62 2.48 1.07 3.36 2.35 4.71.08 9.44-.31 14.1.93.77.21 1.35 1.15 2 .86 3.48-1.67 7.12-.39 10.67-.76 2.29-.23 4.19 1.06 6.2 1.77l3.21-3c.62-2.07-.31-3.95.65-5.64s1.07-2.91-.17-4.44c-.94-1.16.23-2.27.56-3.39a1.58 1.58 0 0 1-.76-1.74l.95-1c-1.73-.6-.44-2.45-1.38-3.39-1.55-1.6-2.86-3.48-4.4-5-2.53-2.48-6.07-4-7.79-7.28-.59-1.14-2.36-.13-2.48-1.9-.07-1.11-1.28-1.48-2.32-2a43 43 0 0 0-4.12-2.15c-1.46-.59-2.85-1.88-4.37-2.71-3.85-2.17-8.09-3.37-11.66-6.1m-68.46 14.62c4.87-1.07 4.87-1.07 10 2.83-2.43.8-3.67 3.06-5.59 4.56h-1.91c-.45.7-1.42 1-1.48 2.33.31 2.66 1.91 5.19 3.57 7.6 2.22 3.22 3.49 4.11 6.67 5.91l5.6-5.6c-.8-1.36-2.89-1.2-3.84-2.87.78-2.34-1.44-4.32-1.06-6.88a17 17 0 0 0-.79-7.1c-.64-2.23 1.26-4.51.93-7-.3-2.33-.41-4.78 1-6.74-1-1-1.84-.44-2.83-.67-2.25 3.65-6.51 5.22-9.32 8.62a7.25 7.25 0 0 1-.95 5.01m16.86 29.51c3.67 2.76 7.35 5.27 11.21 7.63a82 82 0 0 0 12 6l4.37-8.59c-3.1-1.14-5.84-2.79-9.35-3.51l-3.34-3.51c-3.25-.8-6-1.8-8.27-4.28-1.53 2.77-5.27 3.15-6.62 6.26m54.49 21.56c-1.33-2 1-3 .68-4.78a29 29 0 0 1-.06-4.71c-6.1-.77-11.68-2.41-17.71-3-2.14 2.45-3.37 6-6.6 8.49 4.2.22 7.43 2.38 11.22 2.78s7.67 1.98 12.47 1.22m28.13-8.9c-7.3 2.06-13.77 1.19-20.12.07-1.68 4.1-1.69 4.25-.86 9.3 7.71-.86 15.04-2.29 20.98-9.37M85.76 276.334c-.21-1 .11-1.769-.48-2.569-1.71-2.27-1.57-2.87-1.69-6.49-.05-1.77-1.06-3.51-1.72-5.53 2.1-3.6-.52-8.331 2-12.261.91-1.87 3.26-2.649 3.86-4.859 4.15-2.71 6.14-8.001 11.24-9.521a15.8 15.8 0 0 0 5.26-2.209h3.95c1.69.83 1.54 2.219 1.64 3.459 3.13 2.18 8.58 1.31 9 7 3.35 1 4.55 5.451 8.71 5.431-.4 4 3.91 5 4.84 8.11 1 3.31 4.29 4.82 6.29 7.47v2.869a1.25 1.25 0 0 0 1.26.511l7.55 11.66a1.71 1.71 0 0 0-.77 1.819c3.24.62 3.52 3.91 4.78 6.21.57 1 .39 2.341 2 2.581a32 32 0 0 0 4.12 8.299c.48.63.08 1.93.08 2.89l5.68 5.681c.59.9.19 1.91.37 3.37 3.35 2.49 4.55 7 7.42 10.37.65.75.34 1.53.53 2.29.55 2.1.87 4.399 3.6 4.899 1.83 3.64 1.36 7.541 1.37 11.361l-4.38 4.379h-6.06a8.26 8.26 0 0 1-4.5 3.071c-8.93 3-17.5 7.739-27.81 5.679-.94-1.87-4.06-2.089-5.11-4.279s-2.81-3.741-4.11-5.691c-2.51-3.76-2.62-3.839-3.08-6.459-3.58-1.8-4.3-6.06-7-8.88s-2.91-6.91-5.88-9.82v-3.9c-3.06-2.85-2.55-7.46-6-9.91v-4.141c-3.66-3.51-7-7.08-8.93-11.51a33.9 33.9 0 0 0-8.03-11.38m6-14.189c.74.9 1.91 1.68 1.88 2.4-.18 3.49 1.91 5.66 3.42 7.07 1.8 3.51 1.51 7.12 5.28 8.28a2.12 2.12 0 0 1 1 1c1.48 3 2.87 5.94 5.31 8.28.33 3.89 3.21 6.119 5.64 8.649.169.258.294.542.37.841.17.81-.73.999-.92 1.529.31.38.8.72.89 1.14a32 32 0 0 0 4 10.37c1.22 1.91 2.69 4.001 2 6.541a17.3 17.3 0 0 1 5.4 6.37c1 1.87 3.29 3.19 2.92 5.77 2.33 2.23 3.54 5.13 4.72 8 .18.42.1 1.089.6 1.189 2.53.49 3.36 3.461 5.95 3.831 5.35.76 9.83-2.37 14.64-4a14 14 0 0 0 6.74-5.351l-2-2.059v-2.941l-1.8-1.809a12.84 12.84 0 0 0-3.91-8.85c-3.05-2.92-5.37-6.241-6.18-10.421-.18-.94-.78-1.36-1.19-2a66.6 66.6 0 0 1-5.72-10.599 6.67 6.67 0 0 0-3.2-3.771c-2.41-2.25-1.81-4.44-2-6.51-2.64-2.18-3.71-5.51-6-8s-3.24-5.649-4.85-8.469a81.6 81.6 0 0 0-10.09-13.49v-1.51c-1.44-2.81-4.71-3.371-6.15-5.641-1.6-2.52-3.72-4.36-5.73-6.65-3.26 2.51-4.9 5.86-7.23 8.63a11.74 11.74 0 0 0-3 9.301c.21.96.47 2.05-.83 2.88z" fill="#212222"/>
  <path d="M53.78 624.144c1.07-2 2.81-1.62 3.55-2.81 2.48.85 5.13 1.37 7.39 2.62 6.68 3.71 13.7 6.85 19.43 12.19 3.2 3 7.05 5.31 10.7 7.79 1.12.76 2.79.38 3.88 1.51 2.37-1.45 4.71-2.84 7.72-1.84l1.09 1.09v4.28c-1.22 1.21-2.49 2.52-3.81 3.79-1.06 1-1.43 2.49-3 3.23s-2 2.71-2 4.57v13.46c.104 2.05.516 4.072 1.22 6 1 3.26.51 6.43.83 9.59-2.59 2.18-3.32 2.48-6.76 2.69-2.8-5.41-8.16-8.56-13.09-11.84a58 58 0 0 0-16-7.69c-2.66 1.8-5.12-.6-8.09-1.32-3.46 1.12-7.45 1.19-11.49 2.09-.72-1-1.42-1.89-2.48-3.29v-2.32q.173-.332.41-.62a17.56 17.56 0 0 1 6.6-4.5c3.44-1.25 4.14-4.11 4.81-7 .43-1.81 0-3.72.93-5.61.47-1 .85-2.92-.57-4.14-.59-.5-.37-1.28-.25-1.85.23-1.05 1.6-2 .89-3s-.08-2-.51-3c-.5-1.09 1-1.71.63-2.92-.62-2.11-.66-4.5-1.33-6.45a22.5 22.5 0 0 1-.7-4.7m33.87 49.72c.13-2.812.11-5.63-.06-8.44-.31-2.67 1.49-4.94 1-8.12l2.8-2.64c-1.36-.37-2.53-1.77-4.44-1.31a21.9 21.9 0 0 0-7.57-6.63c-3.26-1.84-5-5.28-8.07-7-1.34-.74-2.27-2.87-4.71-2.21.6 4.38-.94 8.8 1 12.8-2 4.79-1.78 10.53-7 13.73 4.78-.37 9 2.29 13.18 1.18 4.71 2.92 9.61 4.64 13.87 8.64m466.76-530.369c-.08-.79-.17-1.57-.25-2.32-4.74-1.23-9.15-3.17-14.21-4-2.29 1.41-4.57 1.37-7.62-3.85-.27-1.25 1.19-1.77 1.22-3 0-.74 1.42-1.08 1.58-2.06l-.7-.71a103 103 0 0 0 6.59-10.74 4.3 4.3 0 0 0 .28-2.38c.06-2.33 0-4.65 0-6.75-1.53-2.57-4.8-3-6-5.38-.11-1.32 1-1.47 1.3-2.34 1.77.3 3.5-.52 5.19.89 1.06.89 2.37-.3 3.46-.89 5.15 2.26 10.65 3.81 13.5 6.81 4.67 2.67 8.18 4.08 10.88 7.09h2.77c2.28 2.51 5.37 2.65 8.3 3.06 1.661.192 3.339.192 5 0 1.24-.11 1.72.78 2.5 1.46v4.94l-7.74 5.19c-1.55 2.44-2.39 6.05-5.19 9.05-.126 2.502-.1 5.01.08 7.51.24 2.08-1.74 3.58-1.06 5.58a54 54 0 0 1 1.92 5.19c.175 1.454.195 2.922.06 4.38-1 2.18-3.49 1.36-4.88 2.7-1.16-.43-2.14-1.53-3.84-.9.22-2.89-4.06-3.37-3.27-6.61-1.72-2.06-2.61-4.69-4.58-6.59-1.78-1.77-3.52-3.56-5.29-5.33m-2.94-32.51c-1.56 5.94-2.47 11.77-5.14 17.07-.06.11.05.3.08.43l1.62 1.64c3.23-1.32 5.93.8 8.87 1.87 3.23 1.17 4.7 4.73 8.19 6.21.14-4.23 3.51-6.77 4.22-10.47.05-.29.3-.77.46-.77 2.63 0 2.16-2.57 3.62-3.71-4.45-1.19-8.57-2.17-11.62-5.39-1.5-1.58-3.66-1.59-5.42-2.38-.09-3.01-3.76-2.34-4.88-4.5" fill="#222"/>
  <path d="M369.46 254.765h-5.48c-.55-.74-1.55-1.1-1.57-2.34 0-1-1.47-.33-1.91-1.16v-2.301l-3-2.459v-3.411l-2.27-1.339c1.4-3.47-2.14-5.411-1.67-8.791l-2.89-2.359c-1.42-8.48-6.44-13.76-12.77-17.86-.57-.8.28-.831.46-1.561-1.82-.36-2.8-2-4.42-3.38-3 .85-5.8-1.809-8.83-.899l-2.12-2.13c-3.06.47-6.36-.77-9.43 1-1.18.69-2-.921-3.05-.941-2.32-.06-4.64 0-7 0-3.92-.58-7.57 2.071-11.68.691-.72-1.42-1.9-3-.9-5.65a14.52 14.52 0 0 1 9-3c2.65 0 5.47.56 7.94-.12 6.17-1.69 12.4-.88 18.55-.73a31.1 31.1 0 0 1 14 3.38c1.17.63 2.22.22 3.67.58 1.68 1.59 3.37 3.9 6.45 3.89.95 0 1.29.929 1.87 1.459.82.76 1.52 1.68 3 1.73.05.79.11 1.571.17 2.541 4.21 2 5.85 6.06 7.28 10.16 1.09 3.13 3 5.759 4.63 8.549 1.35 2.27 3.13 4.361 3 7.221 0 .78.54 1.119.85 1.659a74.4 74.4 0 0 1 5.19 11.86c-.59 1.24-2.28 1.831-2.19 3.481-1.82.51-3.85.33-4.88 2.23M312.43 92.264c.29 2.52-.52 4.73 1.08 6.55.33 1.32-2.27 1.34-.48 3.32-2.69-.75-4 1.18-5.63.84l-6.7-6.7c-1.19-4-4.93-7.48-4.72-13.2a3.24 3.24 0 0 0 .47-2.71c-1.13-3.9-1.16-3.93-.05-7.74.48-1.67-.34-3.37.94-5.12 2.21-3 3.42-6.78 6.43-9.29a9.4 9.4 0 0 0 1.41-1.41c1.94-2.45 3.42-3.3 6.83-3.82l1.41 1.42c.86 3.64-2.08 6.08-3 9.17-.87 2.91-2.57 5.57-4 8.59 2.28 1.6.82 3.5 0 5.17l.94.95c.17.82-1.4 1-1 2.15l2.17 1.61v6.4z" fill="#232323"/>
  <path d="M641.24 815.144h-5a.76.76 0 0 0-.75-1c-1.61-.06-3.22 0-5.37 0l-3.94-4a3.8 3.8 0 0 0-2.93 1c-1.5-1-1.28-2.89-2-4.31-1.28-2.59-2.62-5.15-3.73-7.83-.41-1-.11-1.91-.28-2.84h14c-2.29-1.24-2-3-3.65-4h-3.57a.773.773 0 0 1-.79-1h7.68l1.59 2c1.39.21 2.53-.31 3.61.41a6.5 6.5 0 0 0 5.84.66c.62-.19 1.34 0 1.26 1a4.5 4.5 0 0 1-1.875 1.616 4.5 4.5 0 0 1-2.445.384h-4.94c-.24 0-.46.34-.69.52l1.46 1.46c2.08 0 4.53-.66 6.27.17s4 .35 5.79 1.67c1.1.81 3.09.27 4.43-.84.48 2.45-.83 4.56-1.37 6.81-.35 1.46-1.26 2.79-1.57 4.25a19 19 0 0 0-.06 3.92c-1-.19-2 .24-3.14-.52s-2.75-1.16-3.83.47" fill="#059669"/>
  <path d="m491.811 141.015-3.3-1.42v-5.32c1.1-.71 2.13-1.73 3.26-2.57 2.19-1.62 5-2.67 6.2-5.71.73-1.83 4.22-1.73 4.38-4.58 2.64-.21 2.2-2.82 2.81-4.24s1.21-2.83 1.78-4.52c3.94-1.72 7.87-5 12.31-.31v4c-3.11 3-5 7.11-7.82 10.53-.59.7-1.17 1.51-1.81 2.2a28 28 0 0 1-3.97 3.79c-1.41 1-2.59 2.3-4 3.25a25.4 25.4 0 0 1-4.67 2c-1.63.63-3.02 2.15-5.17 2.9" fill="#232423"/>
  <path d="M62.72 419.584h1.54c1 1-.12 3 1.7 3.77 1.55.62.46 2.31 1.28 3.47a13.3 13.3 0 0 0 2.63 3.33c1 .75 1.16 2 1.59 2.87a15.3 15.3 0 0 0 3.3 5.1c1.52 1.36 1.89 3.2 2.1 5 5.46 2.18 5.49 8.8 9.82 11.78v3c4.89 5.63 4.89 5.63 5 7.58l4.68 4.68c.6 3.46.58 6.66 4.29 7.73v3.34l2.75 2.23c.58 4.84 6 6.7 5.16 11.77l3.1 2.52c-.16 3 1.46 4.07 3.66 4.86.21 1.27 1.72 2.2 1.35 3.8-4.06-3.1-8.09-6.22-11-11.11v-3.39c-3.39-3-5.81-6.86-8.26-10.47h-2.23l-2.67-2.71a5.7 5.7 0 0 0 1.12-4.84c-2.1-1.53-2.34-4.68-4.92-5.6v-3.72l-2.76-2.58c-1.16-3.11-1-6.45-4.87-7.82-1.57-.55-2.58-1.12-3.92.36l-2.4-3.21v-2.46l-2.86-2.38c-.57-1.54.55-1.86.88-2.8-1.2-1.47-1-3.64-2.56-5.31-1.15-1.21-1.36-3.34-2.15-5a89 89 0 0 1-4.25-11.19c-.28-.99-1.17-1.6-1.1-2.6" fill="#059669"/>
  <path d="M555.84 762.275c.72 1.1 2.821 1.6 2.431 4.15-1.34 2.67-4.151 3.27-6.841 4.18-3.2 1.09-6.24 2.93-9.51 3.44-3.54.54-6.14 2.92-9.52 3.67-3.75.82-7.29 2.83-11.05 3.29-2.84.34-5.55 1.95-8.74 1-.63-.48-.069-1.39-.339-2.15a13.24 13.24 0 0 1 5.889-3.8c3.75-1.44 7.641-2.43 11.361-3.9a19.5 19.5 0 0 0 2.689-2c2.53-1.58 5.51-2 8.24-3 .57-.21 1.32.2 1.81-.46 2-2.69 5.3-2.64 8.06-3.38 1.6-.37 3.22-1.37 5.52-1.04m-44.92 12.799c-1.75.49-1.78-2.12-3.46-.61-.07-1.2-.1-1.84-.15-2.69 3.27-1.57 5.49-5 9.73-5.91 3-2.39 6.09-5.35 10.13-7a18.13 18.13 0 0 0 7.5-5.5c4.68-.64 8.31-4 12.87-4.18l3.05 2.81c-1.87 3.76-4.87 5.55-9.56 6.71-.35.4-1.35 1.49-2.31 2.55a5.35 5.35 0 0 0-4.36 1.59 26 26 0 0 1-7.35 4 59 59 0 0 0-8.54 4.7c-1 .66-2.26 1.67-3.28 1.55-2.16-.23-3.29 1.05-4.27 1.98" fill="#262525"/>
  <path d="M315.65 83.955c.23-1.69-1.62-2.37-.92-4.37a11.9 11.9 0 0 0 2.81-7.15 2.5 2.5 0 0 1 .33-1.36 19.6 19.6 0 0 0 2.64-8.32 11.7 11.7 0 0 1 2.23-6.64h5.75c-.28 2.43.76 4.87-.83 7.38-.59 1-.25 2.59-.11 3.89.39 3.42-1.69 6.58-1 10-1.59.92-.66 3-2 4.2-1.1 1-2.63 1.2-3.54 2.36z" fill="#252525"/>
  <path d="M50.73 391.615c3.76 2.11 5 5.85 5.89 9.65a9.24 9.24 0 0 0 1.67 4.24c1.07 1.18 1 2.69 1.75 3.75 1.17 1.68.58 3.62 1.5 5.38.7 1.32 1.69 3.1 1.18 5l-6-7.59c.8-3-1-5.87-1.11-9-.35-.59-.9-.3-1.36-.38a7.83 7.83 0 0 1-1.29-6.46l-2.2-1.57z" fill="#059669"/>
  <path d="M258.55 604.375a2.385 2.385 0 0 1-2-2.35 6.13 6.13 0 0 0-2.35-4.48 17.7 17.7 0 0 1-6-9.941c-.08-.41-.83-.579-.67-1.209 4.4 1.16 6.37 2.429 6.78 6.459.35 3.52 2.3 5.671 4.21 8.191z" fill="#059669"/>
  <path d="M244.3 614.864a6 6 0 0 0-4.33-4.33c-1.47-.44-2.07-1.52-3-2.3-1.75-1.4-2.999-3.3-5.199-4.29-1.21-.55-1.861-2-2.591-3.33-2.35-4.18-6.16-7.14-9.49-10.66v-2.09c.94-.43 2.11-1.47 3.11-1.33 3.33.48 6.33-1.37 9.56-1.07 1.85.17 3.47-.77 4.9-1.42s2.751-.43 4.261-.25c-1.62.91-3.231 1.76-3.911 3.51 0 .57-.19 1.19 0 1.54 3 4.85 5.17 10.18 8.08 15.09.9 1.52 2.52 2.62 3.85 3.94v1.9c2.92 3.06 5 6.77 8.61 9.58-1.48 1.39-2.57 1.34-3.67.45-2.94-2.45-6.39-3.79-10.18-4.94" fill="#059669"/>
  <path d="M360.8 393.604c-1.81 1.07-.63 3.41-2.3 4.51l1 1.07c-.85 2.37-1.14 5-3.76 6.46h-1.91c-.21.59-.42 1.17-.67 1.85h-6.26c-.77-.43-.06-1.5-1.14-2-4.14-1.68-5.13-5.29-5.24-9.3-.06-2 .12-4-.06-6-.11-1.26.71-1.74 1.34-2.46 4.41-1.2 8.57 1.64 12.81.74 2.58 1.12 4.32 2.95 6.19 5.13" fill="#059669"/>
  <path d="M276.9 364.865c3-3.43 6-3.47 8.86-3.22a30.3 30.3 0 0 1 9.72 7.53v7c-1.42 1.53-3.3 2.89-3.9 5.28-3.75.63-6.48-.6-7.6-4-.54-1.64-2.24-2.31-2.53-4l.93-1.21c-1.16-1.19-.8-3.84-3.46-3.59-.97-1.31.67-3.33-2.02-3.79" fill="#059669"/>
  <path d="M235.321 529.715c.34 1 1.43.53 2.14 1.11v5.24a3.3 3.3 0 0 1-1.26 1.092 3.3 3.3 0 0 1-1.63.348c-3.47-.16-6.94-.05-10.68-.05l-1.69-2h-2.12a1.26 1.26 0 0 1-.48-1.34c.19-.2.43-.63.6-.61a11 11 0 0 0 6-1c2.85-1.32 5.9-1.82 9.12-2.79" fill="#059669"/>
  <path d="M357.36 719.764a17.9 17.9 0 0 0 1.78 5.61c1.38 3.3 1.45 3.27 1.49 8.52 1.27 1 1.07 1.88-.08 2.74.15.63 1.07.78 1 .94l-9.49 9.48c-1.91-.61-4.5 2-7.09 1s-5.38-.73-8.16-.92c-1.06-2.56-4.63-1.42-5.8-3.9-3.39.39-4.06-2.55-5.55-4.77a34 34 0 0 0 0-5.22c-.47-3.12 1-5.71 2.59-7.89s1.58-4.37 2.66-6.45a16.3 16.3 0 0 1 7.57-5.17 8.7 8.7 0 0 1 4.71-.35c.8.18 1.61.88 2.63.83h2.36c2.51 2.77 6.01 3.47 9.38 5.55m-20.91 6.72c.43 3.36-2 6.12-.72 9.5.77.8 2 1.65 2.26 3.4 3.83-1.25 7.45 1.54 11.17.73 2.6-3.89 2.6-3.89 1.31-7.33l.89-1c-1.51-2.79-2.7-5.81-5.58-7.56h-5.61z" fill="#232323"/>
  <path d="m617.87 449.555 3.34 3.35c-.19 1.63-2.44 1.35-3.44 2.64a40 40 0 0 0-5.39 0c-1.74.24-2.82-1.81-4.58-1-2.11-2.13-4.21-4.25-5.86-5.93-2.06-3.76-1.63-7.34-1.68-10.88a4.45 4.45 0 0 1 .86-2.65c3.34-5 5.67-10.71 9.51-15.5a18.2 18.2 0 0 0 2.59-5.38c1-2.68 2-5.27 4.15-7.25a26.4 26.4 0 0 0 7.07-10 6.6 6.6 0 0 1 1.16-1.5c2.84 1.71 3 2.38 2.34 5a18.5 18.5 0 0 1-4 7.74 35.5 35.5 0 0 0-5.48 8.28c-1.91 3.62-5.06 6.82-5.18 11.28-2 2.63-3.29 5.66-5.15 8.3-1.09 1.54-2.14 2.76-1.9 4.76.05.47-.63 1-1 1.52.81 4.22 4.47 5.41 7.81 7.23z" fill="#252525"/>
  <path d="M644.38 382.635h12.35c2.2 2.42 5.58 1.73 8.17 3.14s5.22 2.12 7.36 4.4c-.32 2.43-2 4-3.62 5.45-1.42 0-2-1.34-3.37-1-3.59.8-7.2-.22-10.47-1.17-3.56-1-7.25-1.64-10.73-2.87-1.13-.4-2-1.61-2.83-2.35v-3.12z" fill="#262525"/>
  <path d="M620.74 477.486c-1-.89-1.83-2.22-3.46-2.42v-2c.21-.17.42-.5.68-.54 5.1-.71 10.35-.61 14.85-3.9a17 17 0 0 1 3.44-1.26c2.44-.89 5.001-1.89 6.771-4.1 1.12-1.41 2.429-2.67 3.419-3.75.664.09 1.337.09 2 0a9 9 0 0 0 1.62-1l2.94 1.28c.07 1.4 1.88 2.28.61 5-8.79 7.29-19.05 13.62-32.87 12.69" fill="#262625"/>
  <path d="m657.91 408.775 2.2 2.21v7.07c-1.72 1.25-2.069 4-4.599 5.5-1.53-.38-3.241.49-4.851 1.16-1.56-.82-3.18-1.07-4.29-2.53-.61-2.46.76-5.37-1-7.36-.67-1.89 1.23-2.54 1-3.9 5.89-3.06 4.09-2.76 11.54-2.15" fill="#252524"/>
  <path d="m605.051 399.605 2.19 3.691v9.669a9.4 9.4 0 0 1-4.93 3.52h-3.66c-3-2.85-3.69-6.53-4.47-10 1.83-3.24 5.58-4.07 7.48-6.86z" fill="#242424"/>
  <path d="m420.37 51.955.19 3.36c2-2.25 4.76-1.9 6.56-3.28 1.29-.29 1.55 1.6 2.79 1 .89.55.23 2 1.35 2.38-1.85 5.37-7.86 6.79-10.82 11.43h4.57c2.08-3.73 6.08-4.54 10.11-5.57 1.67.77 3.134 1.925 4.27 3.37v3.78l-3.369 3.7c3.72 2.28 6.689 5.1 10.819 5.88l1.61 2.92c-.61 1.16-1.25 2.39-1.78 3.38-.51.34-.75.61-1 .67-1.07.26-2.15-.22-3.3.5-2.32 1.44-4.82.56-6.66-.86a18.84 18.84 0 0 0-8.29-4.16c-4.12 2.17-8.08 6.71-14.85 5.29-.88-.43.73-2.45-1.34-3.19 1.7-.87 2.11-2.51 3.36-3.61a23.7 23.7 0 0 0 3-3.95c-2.22-2.24-3.36-2.78-6.6-3-2.78 4.52-8.38 3.77-12.91 6.19l-2.65-3.6c-.06-.92.38-2.17 2.48-2.61a20.8 20.8 0 0 0 9.62-4.75c-.22-1.72-2.16-.9-2.5-2.17h-4.94c-2.6-2.41-6.85-1.72-8.93-5h-4.2l-2.39-2.88v-2.81l2.87-2.27c1 .1 2.5-.43 4.11.41a36.7 36.7 0 0 0 7.89 2.69c2.54.65 4.89 2 7.66 2 .41 0 .7 1.06 1.61.22-1.35-2.58-4.21-4.64-3-8.17 3.2-1.17 6.43-2.41 9.76-2.2z" fill="#222"/>
</svg>
