<?xml version="1.0" encoding="utf-8"?>
<!-- Generator: Adobe Illustrator 16.0.0, SVG Export Plug-In . SVG Version: 6.00 Build 0)  -->
<!DOCTYPE svg PUBLIC "-//W3C//DTD SVG 1.1//EN" "http://www.w3.org/Graphics/SVG/1.1/DTD/svg11.dtd">
<svg version="1.1" id="Layer_1" xmlns="http://www.w3.org/2000/svg" xmlns:xlink="http://www.w3.org/1999/xlink" x="0px" y="0px"
	 width="240px" height="39px" viewBox="0 0 240 39" enable-background="new 0 0 240 39" xml:space="preserve">
<title>Brand/Logo/Horizontal</title>
<desc>Created with Sketch.</desc>
<g>
	<path fill-rule="evenodd" clip-rule="evenodd" fill="#006647" d="M81.897,22.212c-0.65-0.416-1.388-0.628-2.22-0.628h-5.698v5.521
		h5.642c0.909,0,1.679-0.268,2.305-0.8c0.653-0.552,0.979-1.271,0.979-2.148C82.906,23.279,82.568,22.634,81.897,22.212
		 M82.283,15.864c0-0.895-0.316-1.517-0.946-1.86c-0.492-0.248-1.232-0.372-2.218-0.372h-5.14v4.464h5.405
		C81.315,18.096,82.283,17.351,82.283,15.864 M79.266,30.622H69.69V10.057h10.465c2.698,0,4.573,0.898,5.612,2.693
		c0.534,0.93,0.801,1.914,0.801,2.942c0,1.947-0.867,3.231-2.6,3.862c1.042,0.362,1.861,1.011,2.451,1.943
		c0.535,0.876,0.799,1.879,0.799,3.002c0,2.157-0.81,3.76-2.425,4.805C83.436,30.185,81.592,30.622,79.266,30.622"/>
	<path fill-rule="evenodd" clip-rule="evenodd" fill="#006647" d="M97.772,23.186c-0.411,0.326-1.142,0.58-2.187,0.774
		c-1.16,0.205-1.927,0.408-2.302,0.598c-0.733,0.385-1.094,1.009-1.094,1.888c0,1.144,0.619,1.72,1.858,1.72
		c0.552,0,1.131-0.127,1.745-0.374c0.611-0.248,1.084-0.565,1.42-0.946c0.412-0.495,0.618-1.229,0.618-2.199
		c0-0.173-0.007-0.411-0.028-0.715C97.784,23.605,97.772,23.357,97.772,23.186 M102.18,30.622h-3.872
		c-0.118-0.21-0.247-0.622-0.386-1.229c-0.964,1.027-2.503,1.542-4.611,1.542c-1.516,0-2.747-0.343-3.692-1.026
		c-1.046-0.767-1.565-1.853-1.565-3.261c0-2.08,0.835-3.512,2.511-4.294c0.768-0.363,2.334-0.684,4.696-0.972
		c1.676-0.211,2.513-0.646,2.513-1.314c0-0.608-0.256-1.088-0.768-1.43c-0.516-0.344-1.091-0.517-1.745-0.517
		c-0.726,0-1.348,0.204-1.859,0.606c-0.497,0.397-0.777,0.94-0.856,1.626h-3.958c0.195-2.44,1.309-4.032,3.337-4.775
		c1.062-0.381,2.245-0.573,3.544-0.573c4.475,0.038,6.712,2.106,6.712,6.206V30.622z"/>
	<path fill-rule="evenodd" clip-rule="evenodd" fill="#006647" d="M117.688,30.622h-4.168v-9.211c0-1.068-0.165-1.821-0.504-2.258
		c-0.41-0.515-1.149-0.776-2.211-0.776c-2.149,0-3.225,1.177-3.225,3.521v8.724h-4.166V15.376h3.989v1.434
		c0,0.533,0.009,0.811,0.029,0.829c0-0.019,0.009-0.03,0.033-0.03c0.491-0.839,1.19-1.491,2.095-1.947
		c0.925-0.472,1.901-0.713,2.927-0.713c2.107,0,3.623,0.792,4.549,2.374c0.435,0.743,0.652,1.657,0.652,2.745V30.622z"/>
	<path fill-rule="evenodd" clip-rule="evenodd" fill="#006647" d="M133.405,20.84h-4.166c-0.115-0.722-0.425-1.321-0.918-1.801
		c-0.493-0.477-1.104-0.715-1.831-0.715c-1.124,0-1.982,0.495-2.572,1.486c-0.492,0.803-0.736,1.784-0.736,2.947
		c0,3.297,1.033,4.958,3.101,4.975c0.787,0.019,1.445-0.219,1.981-0.714c0.531-0.516,0.833-1.152,0.917-1.917h4.194
		c-0.237,1.794-1.034,3.241-2.394,4.346c-1.34,1.106-2.953,1.661-4.846,1.661c-2.361,0.018-4.175-0.726-5.438-2.232
		c-1.182-1.394-1.775-3.249-1.775-5.577c0-2.479,0.576-4.438,1.718-5.89c1.28-1.621,3.158-2.431,5.642-2.431
		c1.973,0,3.596,0.496,4.879,1.487C132.54,17.514,133.292,18.973,133.405,20.84"/>
	<path fill-rule="evenodd" clip-rule="evenodd" fill="#006647" d="M146.195,23.016c0-3.092-1.261-4.636-3.784-4.636
		c-2.543,0-3.814,1.544-3.814,4.636c0,3.09,1.271,4.63,3.814,4.63C144.935,27.646,146.195,26.105,146.195,23.016 M150.42,23.016
		c0,2.421-0.722,4.366-2.157,5.835c-1.418,1.446-3.367,2.171-5.852,2.171c-2.483,0-4.454-0.725-5.91-2.171
		c-1.46-1.469-2.189-3.414-2.189-5.835c0-2.441,0.72-4.388,2.156-5.835c1.46-1.469,3.441-2.204,5.943-2.204
		c2.5,0,4.465,0.734,5.885,2.204C149.712,18.628,150.42,20.574,150.42,23.016"/>
	<path fill-rule="evenodd" clip-rule="evenodd" fill="#006647" d="M175.35,23.585c-0.613,3.11-2.157,5.303-4.64,6.581
		c-1.318,0.685-2.83,1.029-4.521,1.029c-3.979,0-6.819-1.573-8.515-4.723c-0.866-1.58-1.299-3.542-1.299-5.891
		c0-1.848,0.274-3.518,0.828-5.004c0.984-2.627,2.66-4.412,5.023-5.348c1.201-0.479,2.541-0.716,4.023-0.716
		c1.669,0,3.187,0.326,4.549,0.974c2.735,1.318,4.254,3.432,4.55,6.35h-4.467c-0.272-1.09-0.827-1.964-1.652-2.632
		c-0.805-0.668-1.78-1.001-2.923-1.001c-1.856,0-3.262,0.773-4.229,2.317c-0.806,1.298-1.212,2.907-1.212,4.836
		c0,1.849,0.379,3.42,1.122,4.717c0.932,1.582,2.275,2.374,4.052,2.374c2.637,0,4.257-1.286,4.843-3.862H175.35z"/>
	<path fill-rule="evenodd" clip-rule="evenodd" fill="#006647" d="M185.513,23.186c-0.41,0.326-1.137,0.58-2.188,0.774
		c-1.159,0.205-1.931,0.408-2.303,0.598c-0.729,0.385-1.092,1.009-1.092,1.888c0,1.144,0.618,1.72,1.86,1.72
		c0.551,0,1.135-0.127,1.745-0.374c0.61-0.248,1.086-0.565,1.415-0.946c0.416-0.495,0.624-1.229,0.624-2.199
		c0-0.173-0.011-0.411-0.029-0.715C185.527,23.605,185.513,23.357,185.513,23.186 M189.924,30.622h-3.876
		c-0.119-0.21-0.248-0.622-0.386-1.229c-0.965,1.027-2.501,1.542-4.613,1.542c-1.516,0-2.741-0.343-3.689-1.026
		c-1.045-0.767-1.566-1.853-1.566-3.261c0-2.08,0.834-3.512,2.515-4.294c0.762-0.363,2.333-0.684,4.696-0.972
		c1.673-0.211,2.509-0.646,2.509-1.314c0-0.608-0.254-1.088-0.767-1.43c-0.511-0.344-1.094-0.517-1.742-0.517
		c-0.729,0-1.348,0.204-1.86,0.606c-0.494,0.397-0.78,0.94-0.856,1.626h-3.963c0.198-2.44,1.308-4.032,3.336-4.775
		c1.067-0.381,2.25-0.573,3.55-0.573c4.475,0.038,6.714,2.106,6.714,6.206V30.622z"/>
	<path fill-rule="evenodd" clip-rule="evenodd" fill="#006647" d="M200.676,19.123c-0.397-0.058-0.778-0.084-1.153-0.084
		c-2.541,0-3.813,1.222-3.813,3.66v7.923h-4.167V15.377h3.932v1.176c0,0.417,0.011,0.635,0.03,0.653
		c0.019-0.019,0.048-0.035,0.089-0.055c0.768-0.782,1.378-1.297,1.831-1.546c0.708-0.378,1.61-0.571,2.689-0.571h0.563V19.123z"/>
	<path fill-rule="evenodd" clip-rule="evenodd" fill="#006647" d="M206.202,30.622h-4.171V15.376h4.171V30.622z M206.202,13.637
		h-4.171V10.24h4.171V13.637z"/>
	<path fill-rule="evenodd" clip-rule="evenodd" fill="#006647" d="M218.814,23.13c0-3.127-1.188-4.691-3.576-4.691
		c-2.319,0-3.483,1.641-3.483,4.918c0,1.162,0.285,2.156,0.855,2.975c0.651,0.953,1.54,1.43,2.664,1.43
		c1.161,0,2.065-0.517,2.716-1.546C218.541,25.356,218.814,24.332,218.814,23.13 M223.046,22.87c0,3.472-1.115,5.874-3.344,7.209
		c-1.12,0.665-2.284,1-3.488,1c-1.929,0-3.385-0.782-4.373-2.346h-0.026v1.889h-4.02V10.239h4.107v7.138h0.06
		c1.122-1.6,2.65-2.398,4.578-2.398h0.03c2.146,0,3.802,0.827,4.967,2.488C222.539,18.898,223.046,20.698,223.046,22.87"/>
	<path fill-rule="evenodd" clip-rule="evenodd" fill="#006647" d="M234.52,21.526c-0.075-0.914-0.394-1.678-0.948-2.288
		c-0.607-0.686-1.363-1.029-2.273-1.029c-0.908,0-1.658,0.343-2.245,1.029c-0.51,0.61-0.84,1.374-0.978,2.288H234.52z
		 M238.776,24.072h-10.849c0.083,1.086,0.404,1.964,0.98,2.63c0.626,0.762,1.481,1.146,2.567,1.146c0.632,0,1.2-0.132,1.715-0.398
		c0.59-0.309,0.965-0.736,1.124-1.29h4.254c-0.476,1.545-1.318,2.747-2.541,3.607c-1.221,0.834-2.669,1.257-4.344,1.257
		c-5.264,0-7.892-2.776-7.892-8.325c0-2.342,0.658-4.212,1.979-5.604c1.34-1.41,3.212-2.115,5.612-2.115
		C236.313,14.979,238.776,18.01,238.776,24.072"/>
	
		<rect x="16.063" y="12.623" transform="matrix(-0.7071 0.7071 -0.7071 -0.7071 53.2559 17.1938)" fill-rule="evenodd" clip-rule="evenodd" fill="#FFD100" width="14.008" height="14.008"/>
	<polygon fill-rule="evenodd" clip-rule="evenodd" fill="#006647" points="21.98,30.619 12.075,20.714 10.988,19.627 12.075,18.54 
		21.98,8.635 22.749,7.866 17.255,2.372 0,19.627 17.255,36.883 22.749,31.389 	"/>
	<polygon fill-rule="evenodd" clip-rule="evenodd" fill="#006647" points="46.134,19.627 28.878,2.372 23.385,7.866 24.153,8.635 
		34.059,18.54 35.146,19.627 34.059,20.714 24.153,30.619 23.385,31.389 28.878,36.882 	"/>
	<polygon fill-rule="evenodd" clip-rule="evenodd" fill="#FFD100" points="59.291,19.627 42.037,2.372 36.545,7.864 47.22,18.54 
		48.307,19.627 47.22,20.714 36.545,31.391 42.037,36.882 	"/>
</g>
</svg>
